<svg id="Слой_1" data-name="Слой 1" xmlns="http://www.w3.org/2000/svg" viewBox="0 0 100 100"><defs><style>.cls-1{fill:#4caf50;}.cls-2{fill:#fff;fill-rule:evenodd;}</style></defs><circle class="cls-1" cx="50" cy="50" r="50"/><path class="cls-2" d="M19.46,33.53v.2a.91.91,0,0,1,.17.17L26.5,46.16a21.79,21.79,0,0,0,2.31-.59c.8-.23,1.53-.41,2.3-.63l7-1.88c1.77-.43.78-.38,1.6-1.42a15.56,15.56,0,0,1,1.43-1.49A3.68,3.68,0,0,1,43,39l3.37-12.6L43.19,24.6c-1.44-.83-9-5.17-9.51-5.25l-5.61,5.34a11.79,11.79,0,0,0,2.16,1.45l6.7,4.23a35.79,35.79,0,0,1-1.44,4.9,40.18,40.18,0,0,1-4.94,1.56l-4.89-7.78A13.44,13.44,0,0,1,25,27.9a9.26,9.26,0,0,0-1.4,1.4c-.49.48-.86.89-1.33,1.39l-2,2.11-.34.35a1.9,1.9,0,0,1-.44.38ZM50.23,44a6,6,0,0,1-.95,1.06l-2.89,3.09a6.56,6.56,0,0,1,3.9,3.69,8.68,8.68,0,0,0,1.46-1.38A8.33,8.33,0,0,1,53.25,49c.1-.37,7.75-8.13,8.8-9.21a35.86,35.86,0,0,1,3-3,4,4,0,0,0,2.25.91c1.19,0,1.14-.76,2.56-.1a21.68,21.68,0,0,1,3.87,2.57c-.23.51-.68.54-.9,1.33a1.78,1.78,0,0,0,2,2.25c.92-.15,2.93-2.47,3.6-3.14l1.65-1.68c.19-.23.25-.47.45-.72v-.88c-.26-.36-.23-.57-.64-.92-1.46-1.27-2.89.6-3.21.77-.18-.49-.75-1.12-1-1.69-.84-1.58.71-1.41-2.55-5.92a14.19,14.19,0,0,0-2.66-3l-4.61-3.79c-2.87-2-6.38-3.91-10.06-4.1-1.42-.08-3.92.17-4.77.89.22.56,1.19.53,2.41.8A19.92,19.92,0,0,1,56,21.1c2.82,1,6.42,3.6,6,7-.23,1.79-1.41,2.11-1.3,3.53.05.65.36.74.43,1.19-1.39,1.56-2.65,2.72-4,4.14L55.7,38.41c-.13.13-5.21,5.52-5.47,5.59Zm-5.89,5.11a7,7,0,0,0-1.12.72l-6,5.31c-.37.36-.59.53-1,.89l-6,5.38c-.75.65-1.35,1.15-2,1.74-1.49,1.42-3.45,3.07-5.06,4.49-1,.87-2.27,1.87-2.6,3-.81,2.64,1.09,4,2.15,5.08,1.35,1.33,2.1,2.66,5.12,2.48.89-.36,1-.25,1.71-.92l5.25-5.88c.19-.23.4-.44.64-.71s.34-.43.69-.78L49.28,55.15a3.92,3.92,0,0,0-.91-4.42,4.21,4.21,0,0,0-4-1.62Zm25.21,19a2.41,2.41,0,0,1,3.06,1.68c1,3.18-3.88,4.49-4.78,1.47a2.44,2.44,0,0,1,1.72-3.15ZM54.3,49.2a24.39,24.39,0,0,1-2.15,2.34l-1.07,1.08a1.19,1.19,0,0,0-.43.7,7.52,7.52,0,0,1-.42,2.22c.41.64,4.09,4.36,5.08,5.52,1.73,2,5.73,6.19,7.74,8.36l6.44,6.93c.64.38,1.67-.21,2.14-.45,1.69-.88,4.46-3.59,5-5.66.24-1-.38-1.26-.87-1.7l-5.57-5.16c-2.1-1.82-4.84-4.51-7-6.48a37.2,37.2,0,0,1-2.7-2.59c-.48-.28-2.31-2.09-2.95-2.68s-.89-.77-1.43-1.3-.9-.79-1.41-1.31C54.38,49.13,54.53,49.16,54.3,49.2ZM44,48.27c.53-.53.57.22,1.5-.76l2.72-2.84.29-.3c.26-.25.11-.14.38-.27a.77.77,0,0,1,.05-.17s0-.1.08-.18l-2.07-1.92-1.07-1a5.51,5.51,0,0,0-1.13-1c-.81,1-.72,2.06-3.16,3.92-.5.38-1,.5-1.48.86.85.81,2.55,2.85,3.19,3.46.37.35.16.17.7.15Z"/></svg>