<svg xmlns="http://www.w3.org/2000/svg" width="100" height="100" xml:space="preserve"><switch><g><path fill-rule="evenodd" clip-rule="evenodd" fill="#0087B5" d="M-75.173-73.813c.008.314-.238.588-.578.646-.709.119-1.674.263-2.238.273-.891.016-1.811.032-2.736-.75-1.555-1.316-2.33-3.908-2.436-8.158l-.002-.039c-.104-4.229.539-6.835 2.021-8.201.885-.815 1.805-.832 2.695-.847.598-.012 1.676.112 2.268.187.344.044.602.309.611.624v.008c.008 1.014 0 2.928-.156 4.352-.035.323-.332.571-.689.578l-2.576.049c-1.172.022-1.375 1.773-1.34 3.239s.324 3.208 1.496 3.187l2.576-.049c.357-.007.666.229.717.55.227 1.422.326 3.333.365 4.345.002.002.002.004.002.006zM-91.14-62.834l-3.779 6.59-3.781-6.59s-.717-1.482-.717-2.887a4.527 4.527 0 0 1 4.518-4.528c2.49 0 4.477 2.032 4.477 4.528-.001 1.297-.718 2.887-.718 2.887zm-3.8-4.829c-1.074 0-1.947.87-1.947 1.941 0 1.07.873 1.939 1.947 1.939 1.076 0 1.947-.87 1.947-1.939a1.944 1.944 0 0 0-1.947-1.941z"/><path fill-rule="evenodd" clip-rule="evenodd" fill="#FFF" d="m-129.736-101.671 5.652-6.026v12.056l-5.652-6.03zm-12.715-6.607h17.822l-8.912 9.5-8.91-9.5zm-.547 12.637v-12.056l5.654 6.028-5.654 6.028zm9.457-1.974 3.268-3.484 5.633 6.005h-17.801l5.633-6.005 3.267 3.484zm9.458 2.498v.022h-.02l.02-.022zM-132.417-119.92c-8.283 0-14.999-6.714-14.999-14.999s6.716-15 14.999-15c8.286 0 15.001 6.714 15.001 15s-6.716 14.999-15.001 14.999zm-.999-23.084s.054 5.71-3.003 10.028c-3.057 4.316 1.442 7.049 4.001 7.049 2.56 0 5.002-1.05 5.002-5.05.001-4-6-12.027-6-12.027zM-177.084-121.25c-8.283 0-14.999-6.714-14.999-14.999 0-8.284 6.716-15 14.999-15 8.286 0 15.001 6.716 15.001 15 0 8.285-6.715 14.999-15.001 14.999zm-.831-24s-.059.543-.711 2.17-5.338 4.521-5.457 8.922c-.119 4.401 5.695 5.908 5.695 5.908s-1.009-1.325-1.306-2.893c-.295-1.568.95-2.895.95-2.895s.178 2.895 2.373 1.688c2.196-1.206.476-5.907.476-5.907s2.016 1.747 2.492 3.856c.474 2.11-1.306 6.149-1.306 6.149s4.626-1.387 4.626-6.511-7.832-10.487-7.832-10.487z"/><g fill-rule="evenodd" clip-rule="evenodd" fill="#FFF"><path d="M-176.084-102.917c-8.283 0-14.999 6.716-14.999 14.999 0 8.285 6.716 15.001 14.999 15.001 8.286 0 15.001-6.716 15.001-15.001 0-8.283-6.715-14.999-15.001-14.999zm-5.729 7.341c2.734-2.444 7.745-4.341 7.745-4.341s2.303 5.394-.146 7.579c-2.447 2.183-6.408 4.423-6.408 4.423s-.462-1.517.601-2.899c1.063-1.383 2.008-1.377 3.253-2.631 1.247-1.255.948-1.619.948-1.619s-1.042 1.175-2.589 1.675c-1.545.501-2.923 1.528-3.215 2.77-.292 1.242-.406 2.042-.406 2.042s-2.517-4.555.217-6.999zm1.921 13.101h-5.235c0 1.021.839 1.574 1.86 1.574.78 0 1.59-.18 2.264-.524l1.005 1.095c-.81.6-1.935 1.17-3.27 1.17-2.281 0-3.825-1.651-3.825-3.84 0-2.13 1.44-3.855 3.779-3.855 1.605 0 2.729.766 3.3 2.026.316.69.331 1.709.122 2.354zm4.065 1.47c.659 0 1.199-.194 1.814-.765l1.141 1.23a3.854 3.854 0 0 1-2.955 1.381c-2.13 0-3.84-1.71-3.84-3.84s1.71-3.84 3.84-3.84c1.186 0 2.25.54 2.955 1.381l-1.141 1.229c-.615-.57-1.155-.766-1.814-.766-1.005 0-1.935.766-1.935 1.996 0 1.229.929 1.994 1.935 1.994zm6.884 1.846c-2.13 0-3.838-1.71-3.838-3.84s1.708-3.855 3.838-3.855 3.855 1.726 3.855 3.855-1.725 3.84-3.855 3.84z"/><path d="M-183.313-85.114c-1.019 0-1.71.72-1.739 1.44h3.435c0-.18-.06-.421-.18-.601-.255-.479-.795-.839-1.516-.839zM-168.943-85.009c-1.004 0-1.935.779-1.935 2.009 0 1.229.931 1.994 1.935 1.994.99 0 1.937-.765 1.937-1.994-.001-1.229-.947-2.009-1.937-2.009z"/></g><g fill-rule="evenodd" clip-rule="evenodd" fill="#FFF"><path d="M-177.938-35.092c-.092.119-.121.314-.121.574 0 .223.022.488.148.643.076.092.21.162.363.162h1.5c.042 0 .112 0 .161-.043s.049-.076.049-.125v-1.395h-1.695a.492.492 0 0 0-.405.184zM-175.561-48.492c-.061 0-.143.19-.185.285l-1.289 3.363h2.949l-1.291-3.363c-.041-.094-.123-.285-.184-.285z"/><path d="M-175.563-57.952c-8.283 0-14.999 6.716-14.999 14.999 0 8.285 6.716 15.001 14.999 15.001 8.286 0 15.001-6.717 15.001-15.001 0-8.283-6.715-14.999-15.001-14.999zm-5.349 24.569h-1.484c-.526 0-.876-.211-1.094-.471-.294-.35-.336-.793-.336-1.338 0-.504.029-1.092.421-1.49.217-.219.574-.414 1.155-.414h1.253v.328h-1.296c-.594 0-.958.316-1.07.756-.049.205-.071.688-.071.871 0 .244.036.664.127.873.215.492.756.555 1.092.555h1.303v.33zm1.413 0h-.365v-4.904h.365v4.904zm4.026-.492c0 .1-.007.273-.126.387-.112.105-.294.105-.421.105h-1.428c-.209 0-.469-.008-.673-.168-.307-.254-.328-.758-.328-.982 0-.301.041-.65.308-.875.204-.168.484-.195.693-.195h1.612v-.553c0-.119-.049-.33-.141-.443a.51.51 0 0 0-.392-.168h-1.8v-.328h1.822c.251 0 .504.098.65.26.197.211.225.518.225.742v2.218zm3.835.35c-.182.127-.433.143-.581.143h-2.144v-.33h2.13c.217 0 .363-.076.435-.176.063-.092.09-.301.09-.428a.526.526 0 0 0-.139-.385c-.119-.113-.336-.166-.876-.295l-.644-.145c-.567-.135-.771-.316-.854-.416-.161-.182-.204-.412-.204-.613 0-.248.056-.436.19-.604.231-.301.545-.322.896-.322h1.78v.328h-1.926c-.085 0-.293.008-.413.127-.127.125-.134.342-.134.441 0 .125.014.342.155.484.125.125.511.223.637.25l.673.154c.448.105.771.176.987.352.232.182.267.398.267.643-.002.26-.052.604-.325.792zm4.018 0c-.182.127-.435.143-.581.143h-2.143v-.33h2.13c.215 0 .363-.076.433-.176.063-.092.091-.301.091-.428a.52.52 0 0 0-.141-.385c-.119-.113-.336-.166-.875-.295l-.644-.145c-.567-.135-.771-.316-.856-.416-.16-.182-.202-.412-.202-.613 0-.248.056-.436.188-.604.231-.301.547-.322.897-.322h1.778v.328h-1.926c-.083 0-.294.008-.413.127-.126.125-.133.342-.133.441 0 .125.014.342.155.484.125.125.511.223.637.25l.673.154c.448.105.77.176.987.352.231.182.267.398.267.643.001.26-.048.604-.322.792zm-4.233-5.544-1.126-2.735h-5.164l-1.126 2.735h-4.876l5.306-11.836c.452-.989 1.065-1.615 3.278-1.615 1.373 0 2.602.132 3.278 1.615l5.304 11.836h-4.874z"/></g><circle fill-rule="evenodd" clip-rule="evenodd" fill="#4CAF50" cx="50" cy="-62.5" r="50"/><circle fill-rule="evenodd" clip-rule="evenodd" fill="#4CAF50" cx="168" cy="-62.5" r="50"/><circle fill-rule="evenodd" clip-rule="evenodd" fill="#4CAF50" cx="284" cy="-62.5" r="50"/><circle fill-rule="evenodd" clip-rule="evenodd" fill="#4CAF50" cx="50" cy="50" r="50"/><circle fill-rule="evenodd" clip-rule="evenodd" fill="#4CAF50" cx="168" cy="50" r="50"/><circle fill-rule="evenodd" clip-rule="evenodd" fill="#4CAF50" cx="284" cy="50" r="50"/><path fill-rule="evenodd" clip-rule="evenodd" fill="#FFF" d="M283.852-31.5c.656 0 3.744-9.262 3.744-9.262s6.27.378 6.924-.946c.656-1.321-5.799-3.214-5.799-3.214l1.309-4.914s8.049.095 8.049-1.134c0-1.796-6.553-4.158-6.553-4.158l1.498-5.481s8.422.472 8.422-1.512-6.738-4.349-6.738-4.349l1.686-7.182s8.609.472 8.609-2.271c0-2.739-6.738-4.346-6.738-4.346s1.217-5.01 2.246-8.506c1.029-3.498-10.199-4.727-17.219-4.727s-16.563 1.984-15.908 4.727c.654 2.74.936 3.212.936 3.212s-6.082-.66-5.24 2.458c.936 3.876 19.652 7.94 19.652 7.94l-12.166-.946 1.498 5.292s-6.738 0-5.99 2.27c1.311 3.496 16.658 6.616 16.658 6.616l-8.422-.568 1.309 4.536s-6.643-.662-5.99 1.702c.656 2.362 13.104 5.292 13.104 5.292l-5.24.19L278.611-47s-6.082-.85-5.428 1.322c.656 2.174 9.547 3.782 9.547 3.782l-2.246.944c0 .001 2.713 9.452 3.368 9.452zM50-36.5c-14.359 0-26-11.64-26-26 0-9.771 5.398-18.275 13.368-22.718L36-78.5l7.84 1.597.398-1.96-4.309-.876a19.834 19.834 0 0 1 10.07-2.752c11.043 0 19.992 8.949 19.992 19.991 0 11.04-8.949 19.992-19.992 19.992-5.521 0-10.506-2.252-14.122-5.87L34.46-46.96c3.979 3.982 9.464 6.46 15.54 6.46 12.15 0 22-9.85 22-22 0-12.149-9.85-22-22-22a21.833 21.833 0 0 0-11.391 3.204l.947-4.644-.527-.108A25.864 25.864 0 0 1 50-88.5c14.359 0 26 11.641 26 26 0 14.36-11.641 26-26 26zm-1-27v2h13v-2H51v-15h-2v15zM31.605-74.55a21.89 21.89 0 0 0-3.476 9.788l1.996.206a19.897 19.897 0 0 1 3.158-8.896l-1.678-1.098zm-1.492 14.109-1.998.206a21.877 21.877 0 0 0 3.492 9.786l1.679-1.101a19.862 19.862 0 0 1-3.173-8.891z"/><path fill="#FFF" d="M181.115-39.885c-.156 8.229-16.311 7.359-21.176 7.359-4.861 0-20.939.078-20.939-7.597s14.795-11.707 15.373-12.537c.578-.828.402-2.936.154-3.684-.246-.746-3.293-3.48-4.154-5.3-.863-1.82-.707-6.093-.707-6.093l21.098-.08s-.236 4.748-1.412 6.807c-1.176 2.056-3.123 3.649-3.371 4.271s-.742 3.526-.125 4.272c.621.748 15.417 4.355 15.259 12.582zm-6.037-29.75c-3.256 0-26.352-.04-29.959-.04 0-4.074 2.742-4.114 2.742-4.114s.078-3.876 2.236-6.646c2.156-2.769 5.688-3.836 5.688-3.836s.979 2.569 1.254 3.953c.275 1.387.863 4.116.863 4.116s.115-7.794.115-9.02c0-1.227 1.256-1.068 2.119-1.068s2.078.038 2.078 1.227c0 1.186.039 9.06.039 9.06s.629-2.652.941-4.234 1.178-4.033 1.178-4.033 3.098.75 5.645 3.836c2.551 3.086 2.236 6.487 2.236 6.487s2.825.08 2.825 4.312zm15.76-6.252c-2.887 0-17.217-.038-17.217-.038s-.406-2.738-2.352-5.776c-1.945-3.04-5.818-4.328-5.818-4.328l.328-.657s1.49-1.66 2.588-2.412c1.1-.752 3.178-1.504 3.178-1.504s.9 1.899 1.176 3.562c.273 1.66.979 4.746.979 4.746s.041-7.99.041-9.098c0-1.108 1.49-1.108 2.156-1.108.668 0 2.117 0 2.117 1.148 0 1.146-.078 9.058-.078 9.058s.588-2.492 1.02-4.272c.432-1.779 1.254-3.995 1.254-3.995s3.328.754 5.727 3.955c2.398 3.202 2.156 6.488 2.156 6.488s2.745-.081 2.745 4.231zm6.156 29.552c-.352 7.35-13.988 7.438-13.988 7.438s.922-4.492-4.193-9.012c-5.119-4.52-11.211-4.854-11.211-6.702 0-2.346 1.797-2.945 3.023-4.92 1.229-1.976 2.033-8.034 2.033-8.034s2.83.169 3.855-1.773c1.027-1.944-1.191-4.806-1.191-4.806h11.201s-.121 5.243-1.607 7.357c-1.486 2.116-3.176 3.838-3.176 3.838s-1.086 2.914-.078 3.956c1.006 1.042 15.684 5.31 15.332 12.658z"/><path fill-rule="evenodd" clip-rule="evenodd" fill="#FFF" d="m60.465 35.363-4.242-4.242-1.414 1.414 5.656 5.656L70 28.656V75c0 1.656-1.344 3-3 3H33c-1.656 0-3-1.344-3-3V25a3 3 0 0 1 3-3h34a3 3 0 0 1 3 3v.828l-9.535 9.535zM44 68h18v-2H44v2zm0-8h18v-2H44v2zm0-8h18v-2H44v2zm0-8h18v-2H44v2zm-4.5-11a1.5 1.5 0 1 0 .001 3.001A1.5 1.5 0 0 0 39.5 33zm0 8a1.5 1.5 0 1 0 .001 3.001A1.5 1.5 0 0 0 39.5 41zm0 8a1.5 1.5 0 1 0 .001 3.001A1.5 1.5 0 0 0 39.5 49zm0 8a1.5 1.5 0 1 0 .001 3.001A1.5 1.5 0 0 0 39.5 57zm0 8a1.5 1.5 0 1 0 .001 3.001A1.5 1.5 0 0 0 39.5 65zM44 34v2h11l-2-2h-9zM194.743 44.414l-4.9-4.9V60h-2V39.514l-4.9 4.9L181.528 43l7.314-7.314L196.157 43l-1.414 1.414zM185.843 73a1 1 0 0 1-1 1h-44a1 1 0 1 1 0-2h5V28a2 2 0 0 1 2-2h30a2 2 0 0 1 2 2v44h5a1 1 0 0 1 1 1zm-8-41.381A5.96 5.96 0 0 1 174.224 28h-22.762a5.96 5.96 0 0 1-3.619 3.619V72h2V55c0 6.074 5.82 11 13 11s13-4.926 13-11v17h2V31.619zM152.763 30h20.16a8.047 8.047 0 0 0 2.92 2.92V55c0-6.076-5.82-11-13-11s-13 4.924-13 11V32.92a8.078 8.078 0 0 0 2.92-2.92zm10.08 16c6.076 0 11 4.029 11 9s-4.924 9-11 9-11-4.029-11-9 4.924-9 11-9zM310.51 67.094c-.156.375-.52.619-.924.619H302v7.586a1.002 1.002 0 0 1-1 1 .986.986 0 0 1-.705-.295l-7.844-7.842a24.048 24.048 0 0 0 11.25-8.748l6.592 6.59c.285.287.371.717.217 1.09zm-26.51.631c-12.158 0-22.012-9.855-22.012-22.012 0-12.158 9.854-22.012 22.012-22.012s22.012 9.854 22.012 22.012c0 12.156-9.854 22.012-22.012 22.012zm0-36.014c-7.734 0-14.002 6.268-14.002 14.002S276.266 59.715 284 59.715s14.002-6.268 14.002-14.002S291.734 31.711 284 31.711zm0 26.014c-6.635 0-12.012-5.379-12.012-12.012 0-6.635 5.377-12.012 12.012-12.012s12.012 5.377 12.012 12.012c0 6.633-5.377 12.012-12.012 12.012zm5.705-13.866a.998.998 0 0 0-1.26-.643L285 44.336v-3.623a1 1 0 1 0-2 0v3.623l-3.445-1.119a.998.998 0 0 0-1.26.643.996.996 0 0 0 .641 1.26l3.447 1.119-2.131 2.932a.997.997 0 0 0 .223 1.396.996.996 0 0 0 1.395-.223l2.131-2.93 2.131 2.93a.997.997 0 0 0 1.395.223.998.998 0 0 0 .223-1.396l-2.131-2.932 3.447-1.119a1 1 0 0 0 .639-1.261zm-14.156 24.303-7.844 7.842a.986.986 0 0 1-.705.295 1.002 1.002 0 0 1-1-1v-7.586h-7.586a1.001 1.001 0 0 1-.707-1.709l6.592-6.59a24.041 24.041 0 0 0 11.25 8.748z"/></g></switch></svg>
