<svg id="Режим_изоляции" data-name="Режим изоляции" xmlns="http://www.w3.org/2000/svg" viewBox="0 0 1120.04 474.89">
  <defs>
    <style>.cls-1{fill:#f5f5f5;}.cls-2{fill:#e8e8e7;}.cls-3{fill:#7be94b;}.cls-4{fill:#40af10;}.cls-5{fill:#138920;}.cls-6{fill:#097900;}</style>
  </defs>
  <path class="cls-1" d="M1601,373.14,1617.61-96S1519.17-14.65,1357.5,13C1210.6,38,1011.53,8.7,812.13,32c-110.91,13-288.9,83.89-410.34,102.36-158.1,24-214.46,5.69-214.46,5.69l12.32,233Z"/>
  <path class="cls-2" d="M-32,451-46.13-18.13s83.44,81.38,220.47,109c124.51,25.08,293.24-4.26,462.25,19.07,94,13,244.88,83.9,347.8,102.36,134,24,181.78,5.7,181.78,5.7l-10.44,233Z"/>
  <path class="cls-3" d="M-29.44,484.62l22-284.31S53.23,231,190.27,249.38c124.51,16.67,295.55-17.5,464.56-2C748.84,256,842,285.57,940.25,305c104.58,20.64,222.15-3.68,222.15-3.68l-4.08,183.3Z"/>
  <path class="cls-4" d="M-28.09,233.25s82.39,60.3,187.25,64.56c245.77,10,307-37.51,476.77-23.07C803.08,289,845.17,321.37,980.14,327c130.53,5.49,176.22-19.48,176.22-19.48l0,178.17L-25,484.93Z"/>
  <path class="cls-5" d="M-29.45,310.82s111.12,35,213,27.59c158.44-11.57,218.1-27,347.61-19.56,152,8.76,292.69,74.37,442.4,79C1085.2,401.35,1154.79,368,1154.79,368l2.48,117.31v5.22L-29.44,487.63Z"/>
  <path class="cls-6" d="M-29.44,490.61V372S83.59,391.7,261,361c169.75-29.39,293.27,5.76,428.67,55,197.2,71.66,467,74.81,467,74.81Z"/>
</svg>
