<svg id="Слой_1" data-name="Слой 1" xmlns="http://www.w3.org/2000/svg" viewBox="0 0 1672.44 708.66"><defs><style>.cls-1,.cls-3,.cls-4{fill:#fff;}.cls-1,.cls-2,.cls-3{fill-rule:evenodd;}.cls-2{fill:#6d2c00;}.cls-3{stroke:#e50201;stroke-miterlimit:10;}</style></defs><g id="_лой_1" data-name=" —лой_1"><g id="_105553231568864" data-name=" 105553231568864"><path class="cls-1" d="M66.08,293.82l-46.1,0A12.75,12.75,0,0,1,12.24,271L360.59,5.73a12.6,12.6,0,0,1,15.33-.09L732.85,270.76a12.76,12.76,0,0,1-7.61,23H684.47v128a12.76,12.76,0,0,1-25.51,0V281a12.78,12.78,0,0,1,12.75-12.75h15L368.41,31.84,57.82,268.31l21,0A12.79,12.79,0,0,1,91.6,281.05V680.89H1656.79a12.76,12.76,0,1,1,0,25.51H78.84a12.78,12.78,0,0,1-12.75-12.76V293.82Zm531-19.62L368.59,124.3,156.09,273.75V639.09H659V628.64a12.76,12.76,0,0,1,25.51,0v23.2a12.78,12.78,0,0,1-12.76,12.76H143.33a12.78,12.78,0,0,1-12.75-12.76V267.13A12.41,12.41,0,0,1,136,256.69L361,98.44a12.53,12.53,0,0,1,14.33-.23l241.5,158.44a12.42,12.42,0,0,1,5.76,10.67V421.75a12.76,12.76,0,1,1-25.51,0V274.2Z"/><polygon class="cls-2" points="382.17 270.88 540.76 270.88 540.76 429.85 382.17 429.85 382.17 270.88"/><path class="cls-1" d="M489.65,404.61,457.47,424.4c-1.63.58-3.36,1.27-5.17,2.09a67.77,67.77,0,0,0-6.47,3.35h94.93l.32-70.73c-.08-9.29.18-3.37-2.44-5.07.34,4-19.94,46.08-23,53.79C511.3,404.77,496.2,400.37,489.65,404.61Z"/><path class="cls-3" d="M511.73,334.19c2.74-5.08,3.62-7.87,8.57-10.32a26.08,26.08,0,0,1,15.22-1.81c1.67.3,4.39.88,5.55,1.21v-3l0-49.29-65.2,0c-3,.06-3.5.08-3.6.1V273c8.72-.19,20.15,8.24,24.52,12.44,5.33,5.13,10.24,14.3,13,23.78,4.92,16.78.67,16.58-11.56,37.42-4.35,7.41-8.38,14.86-13.4,21.83-2.84-6.15-.75-33.22-28.37-48.71-21.65-12.14-40.06-8.16-61.65.16,2.29-9,45.74-44.93,58.82-48.91l-71-.09-.44,68c6.22-5.86,8.58-8.9,17.08-13.86,5.75-3.36,13.49-6.38,24.79-6.58,15.82-.27,29.07,6.11,37.39,14.24,22.23,21.71,22.47,53.88,1.14,71.92-24.26,20.51-56.45,11-70-11-17-27.49,1.65-59.2,29.62-61A39.15,39.15,0,0,1,457.09,349c8.12,11.64,9.65,27.65,1.18,39.38-18.07,25-59.68,12.59-57.68-19.32.87-13.89,13.31-24.79,28.85-22.15,11.32,1.93,24.91,14.92,19.12,29.72-5.46,14-25.12,14.49-31.53,2.48-7.91-14.82,7-23.08,15-16,1.48,1.31,5.48,6.41,1.52,9.68-4.26,3.23-3.91-3-6.31-5.64l-5.58.42c-4.32,20.63,29.81,17.16,20.19-4.29-6.14-13.7-28.5-13.14-33.9.75-6.2,15.94,8.47,30.39,22,31.45,36,2.8,36.82-50.38.94-56.2-17.39-2.83-31.1,7.55-35.88,18.77-12.89,30.31,21,61.3,51.86,48.83,49.09-19.83,19.75-92.8-32.22-81-13.4,3-27.42,13.87-31.65,24.18-2,4.86-.88,19.7-.88,26.07,0,12.6-1.45,14.17,4.6,23.33,20.78,31.48,68.1,32.54,89.78,1.46,3-4.32,8.18-13.28,12.82-22,7.76-14.6,14.52-30,22.39-44.63Z"/><path class="cls-1" d="M382.17,429.74l39.88,0c-10.6-4.36-21.26-5.86-31.43-16.34-2.1-2.16-6.32-7-8.31-8.54l-.14,24.85Z"/><polygon class="cls-1" points="203.07 273.14 360.72 273.14 360.72 429.25 203.07 429.25 203.07 273.14"/><path class="cls-2" d="M319.82,415.7c6.63-7,15.53-14.51,18.39-24.3h9L346.8,402l2.23-.39c-5.59,7.13-11.71,10.19-19.46,14.1Zm9.93-24.3c-4.14,12.69-9.42,15.13-17.4,24.3h-6.42c5.2-7.48,10.85-15.31,13.39-24.3Zm-21,0c-3.09,8.71-6.66,17.15-12.36,24.3h-2.23c4.76-8.42,8.26-14.59,10.09-24.3Zm40.61,8,4.92-.09L355,275.44l-1.43.05q-2.11,62-4.24,123.9Zm-70-14.6,6.77-12c-4.6,4.59-8.22,8.69-13.73,12Zm-13.9,0c6.21-5.87,14.91-13.29,17.09-22h-10.4c-2.18,8.52-7.23,14.9-12.14,22Zm-1.59-22c-3.25,8.77-6.11,16.6-14.89,20.82,6.11-7,7.89-12,10.15-20.82Zm-22.43-25.31c-2.42,7.21-6.87,14.57-13.81,18.18,2.87-4.88,8-12.43,8.2-18.18Zm5.83.27,7.61-.09-14.72,18.23h-.07l-4.12-.05C241.08,351,245.64,344.59,247.25,337.72Zm9.34-23.38c12.46-3.93,21.44-9.23,23.15-21.89,1.63-12,3.49-13.58,13.22-20.05l-3.73.28c-8.35,6-13.9,12.45-15.53,22.11-1.68,10-6.82,13.24-17.11,19.55ZM283.66,290c-.64-8.52,7.17-14.17,17.19-17.41h-6.61C287.83,276.62,279.4,281.58,283.66,290Zm.87,46.08c10.47-8.59,15.75-13.87,19.3-24.84,4-12.43-.39-17.13,4.9-26.6,2.88-5.15,6.2-8.5,10.62-12.18l-4.65.27a105,105,0,0,0-8.88,11.6c-6.83,11.11-3.38,14.26-6.91,26.53-2.71,9.44-8.64,17-14.38,25.22Zm39.61-63.58-3.51.14c-9.53,8-15,15.7-10.44,28.94C309.2,288.07,314.09,280.68,324.14,272.45Zm13.94-.09,5.29.23c-8.28,12.32-13.4,24.09-14.21,38.9-.16,2.88-.31,5.76-.47,8.64-1,27.21-4.46,32.76-20.42,54.69,9.28-21,11.66-28.46,15.13-51.23l1.47-11.86c1.72-13.87,7.32-26.74,13.21-39.37Zm6.75.18h3.41c-9.79,13.52-13.77,21.91-14.22,38.75-2.75-18.84.85-23.19,10.81-38.75Zm-63.87.18Q246,303.77,211,334.8q0,11.13.05,22.25h27.39L235,360.69l.18,25.16,43.21.19c-1.07,1.18-2.4,2.46-3.47,3.64v27.21c24.13-.12,49.08.08,73.21,0l0-9.29,5.3.35,3.47-2.73q-.33-65.68-.64-131.36h-2.92l.09-1.82-4.37.63q-5.12,58.78-10.22,117.58H292.13Q312.58,331.38,333,272.54l-6.65.09L288.8,361.24H248.92l61.76-88.7-7-.27-48.68,64H223.55l63.79-63.72-6.38.18Z"/><path class="cls-4" d="M382.94,449.09H488.73V606.65H455V482.85H416.7v123.8H382.94V449.09Zm123.8,0H612.53V559.38h-72v47.27H506.74V449.09Zm33.76,33.76v42.77h38.26V482.85Zm88.91-33.76H735.2V606.65H629.41Zm33.76,33.76v90h38.27v-90Zm88.91,104.67V467.1h58.53V443.46h33.76V467.1h58.52V587.52H844.37v26.56H810.61V587.52ZM785.85,556h25.88v-57.4H785.85Zm57.39-57.4V556h25.89v-57.4Zm86.18-218.37h219.16V606.65h-69.94V350.19H999.37V606.65h-70V280.24Zm256.47,0h219.16V606.65H1185.89Zm69.94,69.95V536.71h79.27V350.19ZM1468,280.24h180.46V606.65h-70V350.19h-49.43l-31.71,256.46h-83.46V536.71h25.18L1468,280.24Z"/><polygon class="cls-1" points="203.07 444.8 360.72 444.8 360.72 600.91 203.07 600.91 203.07 444.8"/><path class="cls-2" d="M215.15,490.34v.45a1.43,1.43,0,0,1,.37.37l15,26.78a43.41,43.41,0,0,0,5-1.29c1.75-.49,3.35-.88,5.05-1.37l15.29-4.1c3.87-.94,1.7-.83,3.49-3.11a37.42,37.42,0,0,1,3.14-3.27,8,8,0,0,1,4-2.54l7.35-27.54L267,470.83c-3.14-1.83-19.75-11.3-20.78-11.49L234,471c.77,1,3.51,2.39,4.73,3.15l14.65,9.26a81.83,81.83,0,0,1-3.16,10.71c-.37.47-9.56,3.17-10.8,3.42l-10.69-17a26.22,26.22,0,0,1-1.51-2.5c-1,.55-2.2,2.19-3.07,3-1.08,1.06-1.88,2-2.91,3.06l-4.35,4.6-.74.76a4.52,4.52,0,0,1-1,.83Zm67.25,22.88a12.76,12.76,0,0,1-2.08,2.33L274,522.29c3.86,1.71,6.77,3.72,8.54,8.06a17.42,17.42,0,0,0,3.18-3c.72-.78,2.36-2.77,3.29-3.21.2-.8,16.93-17.76,19.22-20.12,1.32-1.35,5.32-5.94,6.51-6.63,1.39.81,2.65,2,4.91,2,2.59,0,2.49-1.66,5.59-.22,1.74.82,7.37,4.36,8.45,5.61-.5,1.13-1.47,1.19-1.95,2.92a3.87,3.87,0,0,0,4.46,4.9c2-.32,6.4-5.39,7.86-6.86l3.59-3.66c.44-.51.57-1,1-1.57v-1.93c-.55-.78-.5-1.25-1.38-2-3.2-2.76-6.34,1.33-7,1.68-.38-1.05-1.63-2.43-2.29-3.67-1.84-3.46,1.55-3.08-5.58-13a31.24,31.24,0,0,0-5.81-6.55l-10.07-8.27c-6.29-4.44-14-8.55-22-9-3.12-.16-8.57.39-10.43,1.95.49,1.22,2.6,1.17,5.26,1.75a44.29,44.29,0,0,1,5.58,1.69c6.16,2.28,14,7.86,13.11,15.27-.49,3.93-3.08,4.62-2.83,7.72.11,1.42.77,1.61.94,2.6-3,3.4-5.79,6-8.76,9.06-1.06,1.1-1.95,2.07-3,3.18-.27.28-11.39,12.07-12,12.21ZM269.53,524.4a14.2,14.2,0,0,0-2.46,1.56L254,537.58c-.82.78-1.3,1.15-2.11,1.95l-13.2,11.75c-1.64,1.41-3,2.52-4.3,3.8-3.26,3.11-7.53,6.7-11.07,9.82-2.14,1.89-5,4.08-5.68,6.48-1.76,5.78,2.38,8.79,4.71,11.1,2.94,2.93,4.58,5.83,11.19,5.43,1.93-.78,2.3-.55,3.74-2l11.46-12.85c.43-.51.88-1,1.41-1.56s.75-.93,1.51-1.7l28.71-32.19c1.52-4.63.37-6.78-2-9.67a9.22,9.22,0,0,0-8.81-3.53ZM324.64,566a5.29,5.29,0,0,1,6.68,3.67c2.12,7-8.48,9.81-10.46,3.22-.91-3,.52-5.8,3.78-6.89Zm-33.35-41.37a53.93,53.93,0,0,1-4.69,5.13l-2.35,2.34a2.82,2.82,0,0,0-.94,1.54,16,16,0,0,1-.91,4.85c.89,1.39,8.94,9.54,11.1,12.06,3.79,4.44,12.52,13.54,16.92,18.27l14.08,15.15c1.4.84,3.66-.47,4.67-1,3.69-1.91,9.75-7.83,10.86-12.36.53-2.14-.83-2.75-1.9-3.71L326,555.59c-4.59-4-10.57-9.87-15.27-14.16-.51-.47-5.72-5.14-5.9-5.66-1-.63-5.06-4.58-6.45-5.86-1.12-1-1.95-1.69-3.13-2.84-1-1-2-1.73-3.07-2.86C291.47,524.44,291.8,524.5,291.29,524.59Zm-22.55-2c1.15-1.17,1.25.48,3.27-1.67l6-6.19c.29-.29.38-.43.62-.66.58-.56.25-.31.83-.58.08-.34,0,0,.13-.39,0-.05.09-.21.16-.39l-4.52-4.2c-.92-.85-1.49-1.35-2.33-2.14a11.56,11.56,0,0,0-2.48-2.11c-1.76,2.22-1.57,4.49-6.9,8.56-1.1.84-2.08,1.1-3.24,1.87,1.86,1.78,5.57,6.23,7,7.56.81.77.34.38,1.52.34Z"/></g></g></svg>