<?xml version="1.0" encoding="UTF-8"?>
<!DOCTYPE svg PUBLIC "-//W3C//DTD SVG 1.1//EN" "http://www.w3.org/Graphics/SVG/1.1/DTD/svg11.dtd">
<!-- Creator: CorelDRAW -->
<svg xmlns="http://www.w3.org/2000/svg" xml:space="preserve" width="590mm" height="250mm" version="1.1" style="shape-rendering:geometricPrecision; text-rendering:geometricPrecision; image-rendering:optimizeQuality; fill-rule:evenodd; clip-rule:evenodd"
viewBox="0 0 59000 25000"
 xmlns:xlink="http://www.w3.org/1999/xlink"
 xmlns:xodm="http://www.corel.com/coreldraw/odm/2003">
 <defs>
  <style type="text/css">
   <![CDATA[
    .fil1 {fill:#E50201}
    .fil2 {fill:white}
    .fil4 {fill:#E50201;fill-rule:nonzero}
    .fil0 {fill:url(#id0)}
    .fil3 {fill:url(#id1);fill-rule:nonzero}
   ]]>
  </style>
  <radialGradient id="id0" gradientUnits="userSpaceOnUse" gradientTransform="matrix(0.720179 -5.34383E-002 0.0534382 0.720179 3087 4432)" cx="13563.13" cy="13247.64" r="11728.9" fx="13563.13" fy="13247.64">
   <stop offset="0" style="stop-opacity:1; stop-color:red"/>
   <stop offset="1" style="stop-opacity:1; stop-color:#FF6600"/>
  </radialGradient>
  <radialGradient id="id1" gradientUnits="userSpaceOnUse" gradientTransform="matrix(-7.91324E-001 -9.69092E-017 9.69093E-017 -7.91324E-001 56669 32457)" xlink:href="#id0" cx="31635" cy="18118.92" r="22322.34" fx="31635" fy="18118.92">
  </radialGradient>
 </defs>
 <g id="__x2014_лой_x0020_1">
  <metadata id="CorelCorpID_0Corel-Layer"/>
  <g id="_105553231568864">
   <path class="fil0" d="M2152.79 10353.9l-1626.62 1.29c-196.58,0.16 -363.78,-119.75 -426.69,-305.99 -62.91,-186.23 -2.67,-382.97 153.73,-502.05l12289 -9356.33c161.9,-123.26 377.58,-124.54 540.93,-3.21l12591.67 9353.03c158.51,117.74 220.91,315.1 158.91,502.56 -62.01,187.46 -229.79,308.69 -427.24,308.69l-1438.48 0 -0.02 4515.19c0,247.85 -202.15,450 -450,450 -247.85,0 -450,-202.15 -450,-450l0.02 -4965.19c0,-247.85 202.15,-450 450,-450l528 0 -11227.85 -8339.99 -10957.04 8342.23 741.32 -0.59c247.98,-0.2 450.36,202.02 450.36,450l0.04 14105.4 55216.56 0.16c247.85,0 450,202.15 450,450 0,247.85 -202.15,450 -450,450l-55666.56 -0.16c-247.85,0 -450,-202.15 -450,-450l-0.04 -14105.04zm18732.38 -691.94l-8060.79 -5288.33 -7496.32 5272.41 -0.06 12888.23 17739.99 0 0.02 -368.49c0.02,-247.85 202.18,-449.99 450.03,-449.97 247.85,0.02 449.99,202.18 449.97,450.03l-0.05 818.46c-0.02,247.84 -202.16,449.97 -450,449.97l-18639.96 0c-247.85,0 -450,-202.15 -450,-450l0.06 -13571.89c0,-151.14 67.5,-281.13 191.12,-368.08l7937.52 -5582.72c154.04,-108.34 348.26,-111.48 505.72,-8.18l8519.59 5589.33c130.64,85.71 203.16,220.02 203.16,376.26l0 5448.14c0,247.85 -202.15,450 -450,450 -247.85,0 -450,-202.15 -450,-450l0 -5205.17z"/>
   <path class="fil1" d="M17095.22 14262.32l-1135.24 698.33c-217.32,100.55 -264,88.03 -392.34,138.42l3330.82 53.6 11.27 -2495.44c-2.84,-327.58 6.28,-118.69 -86.18,-178.74 12,139.66 -703.39,1625.48 -811.64,1897.62 -152.78,-107.98 -685.51,-263.22 -916.69,-113.79z"/>
   <path class="fil1" d="M17874.11 11778.22c96.68,-179.39 127.9,-277.79 302.44,-364.08 148.12,-73.24 356.16,-95.77 536.98,-63.76 58.9,10.43 154.63,30.83 195.8,42.61l-0.08 -106.47 -0.72 -1738.81 -2300.03 -1.99c-105.84,2.22 -123.45,2.79 -127.22,3.48l-0.24 69c307.66,-6.71 711.05,290.7 865.15,438.96 188.02,180.89 361.31,504.46 459.24,838.68 173.48,592.08 23.56,584.88 -407.87,1320.22 -153.31,261.31 -295.68,524.29 -472.65,769.87 -100.09,-216.87 -26.42,-1171.92 -1001.03,-1718.32 -763.75,-428.19 -1413.12,-287.86 -2174.86,5.65 80.8,-317.78 1613.6,-1585.06 2075.15,-1725.19l-2505.76 -3.36 -15.36 2399.29c219.12,-206.84 302.46,-314 602.27,-488.97 202.89,-118.4 475.99,-225.06 874.49,-232.01 558.42,-9.73 1025.56,215.47 1319.32,502.37 784.17,765.85 792.67,1900.66 40.16,2536.89 -855.95,723.68 -1991.59,387.36 -2470.72,-388.31 -598.99,-969.72 58.3,-2088.53 1045.17,-2153.04 577.87,-37.77 1008.54,257.49 1232.73,578.74 286.54,410.6 340.63,975.4 41.64,1389.31 -637.39,882.4 -2105.22,444.04 -2034.8,-681.87 30.63,-489.68 469.54,-874.54 1017.96,-781.2 399.36,67.96 878.72,526.46 674.5,1048.53 -192.57,492.3 -886.37,511.09 -1112.51,87.31 -278.88,-522.6 248.2,-814.25 529.45,-564.78 52.07,46.18 193.02,226.05 53.54,341.63 -150.2,113.76 -138.15,-107.45 -222.81,-199.18l-196.78 15.05c-152.27,727.79 1051.7,605.09 712.48,-151.63 -216.66,-483.31 -1005.52,-463.4 -1196.15,26.64 -218.79,562.43 298.95,1072.13 776.76,1109.39 1269.57,99.01 1298.98,-1777.36 33.45,-1982.7 -613.8,-99.59 -1097.41,266.61 -1265.81,662.36 -454.95,1069.17 740.46,2162.54 1829.37,1722.69 1731.92,-699.59 696.87,-3273.89 -1136.49,-2859.44 -472.82,106.88 -967.35,489.39 -1116.79,853.17 -70.35,171.26 -30.95,694.78 -31,919.77 -0.11,444.48 -51.02,499.68 162.37,822.95 732.92,1110.3 2402.33,1147.9 3167.1,51.43 106.28,-152.38 288.57,-468.36 452.4,-776.57 273.79,-515.08 512.22,-1059.35 789.76,-1574.31z"/>
   <path class="fil1" d="M13303.72 15148.83l1406.81 1.11c-373.9,-153.83 -750,-206.52 -1108.81,-576.23 -73.97,-76.22 -222.84,-247.61 -293.19,-301.45l-4.81 876.57z"/>
   <polygon class="fil1" points="6985.53,9624.51 12546.83,9624.51 12546.83,15131.84 6985.53,15131.84 "/>
   <path class="fil2" d="M11103.99 14653.74c234.11,-247.31 547.95,-512.11 648.81,-857.46l318.17 0 -15.21 373.71c26.26,-4.56 52.52,-9.12 78.79,-13.68 -197.21,251.62 -413.21,359.61 -686.44,497.43l-344.12 0zm350.52 -857.46c-146.07,447.88 -332.4,534.08 -613.95,857.46l-226.54 0c183.37,-263.98 382.84,-540.07 472.28,-857.46l368.21 0zm-741.25 0c-109.24,307.53 -234.96,605.15 -436.06,857.46l-78.58 0c167.66,-297.11 291.23,-514.83 355.87,-857.46l158.77 0zm1432.53 282.1c57.88,-1.07 115.77,-2.15 173.65,-3.22 8.83,-1456.51 17.67,-2913.02 26.5,-4369.53 -16.88,0.53 -33.77,1.08 -50.65,1.61 -49.84,1457.04 -99.67,2914.1 -149.5,4371.14zm-2469.63 -515.22l238.73 -421.94c-162.18,162.02 -290.06,306.61 -484.61,421.94l245.88 0zm-490.59 0c218.97,-206.92 526.21,-468.89 603.09,-777.1l-367.02 0c-76.82,300.48 -255.23,525.81 -428.23,777.1l192.16 0zm-56.1 -777.1c-114.44,309.4 -215.55,585.65 -525.12,734.58 215.42,-246.29 278.17,-422.95 358.05,-734.58l167.07 0zm-791.38 -892.83c-85.23,254.27 -242.36,513.88 -487.19,641.38 101.59,-172.36 284.06,-438.62 289.33,-641.38l197.86 0zm205.84 9.46c89.51,-1.07 179.02,-2.15 268.54,-3.22l-519.36 643.16 -2.34 0 -145.61 -1.58c181.22,-168.45 341.94,-396.02 398.77,-638.36zm329.56 -824.85c439.33,-138.49 756.13,-325.55 816.71,-772.18 57.56,-424.76 123.14,-479.11 466.43,-707.14 -43.95,3.22 -87.9,6.43 -131.85,9.65 -294.32,213.24 -490.11,439.33 -547.62,780 -59.4,351.94 -240.63,467.04 -603.67,689.67zm955.02 -860.25c-22.71,-300.51 252.96,-500.04 606.19,-614.24 -77.72,0 -155.43,0 -233.15,0 -226.19,143.95 -523.28,319.03 -373.04,614.24zm30.51 1625.65c369.44,-303.11 555.76,-489.35 680.92,-876.35 141.76,-438.47 -13.87,-604.36 172.86,-938.58 101.48,-181.6 218.62,-299.7 374.7,-429.75 -54.67,3.22 -109.34,6.43 -164.01,9.65 -110.95,134.83 -221.48,260.11 -313.26,409.33 -240.93,391.76 -119.5,502.91 -243.86,935.83 -95.65,332.96 -304.75,598.97 -507.35,889.87zm1397.27 -2243.04c-41.27,1.61 -82.54,3.22 -123.81,4.83 -336.15,281.48 -530.19,553.96 -368.23,1021.04 -34.85,-475.01 137.74,-735.43 492.04,-1025.87zm492 -3.23c62.17,2.68 124.35,5.36 186.52,8.04 -292.25,434.57 -472.88,849.82 -501.25,1372.37 -5.52,101.57 -11.03,203.15 -16.56,304.73 -35.53,960.07 -157.54,1155.65 -720.35,1929.53 327.29,-740.33 411.44,-1004.19 533.83,-1807.33 17.26,-139.49 34.52,-278.99 51.77,-418.49 60.53,-489.24 258.32,-943.38 466.04,-1388.85zm237.9 6.43c40.2,0 80.4,0 120.6,0 -345.36,476.91 -485.89,772.68 -501.7,1366.78 -97.04,-664.38 30.02,-818.05 381.1,-1366.78zm-2252.99 6.42c-822.2,730.01 -1644.38,1460.01 -2466.58,2190.02 0.52,261.55 1.06,523.11 1.58,784.66 322.12,0 644.25,0 966.37,0 -40.73,42.89 -81.47,85.78 -122.2,128.66 2.14,295.86 4.27,591.72 6.41,887.58 508.11,2.15 1016.23,4.29 1524.33,6.44 -37.52,41.8 -84.68,86.83 -122.2,128.63l0 959.95c851.14,-4.29 1731.23,2.69 2582.37,-1.6l-0.44 -327.62c64.32,4.29 122.63,8.18 186.95,12.47 40.74,-32.16 81.48,-64.33 122.21,-96.48 -7.51,-1544.69 -15.01,-3089.4 -22.52,-4634.09 -34.3,0 -68.6,0 -102.9,0 1.06,-21.44 2.14,-42.88 3.21,-64.32 -51.45,7.51 -102.9,15 -154.36,22.51 -120.19,1382.57 -240.39,2765.13 -360.58,4147.7 -549.19,0.02 -1098.38,0.05 -1647.57,0.07 480.72,-1383.66 961.44,-2767.31 1442.16,-4150.97 -78.26,1.07 -156.51,2.14 -234.77,3.21 -441.64,1041.95 -883.3,2083.91 -1324.95,3125.86 -468.98,0 -937.96,0.01 -1406.94,0.01 726.24,-1043.02 1452.5,-2086.04 2178.75,-3129.06 -82.55,-3.22 -165.08,-6.43 -247.63,-9.65 -572.42,752.52 -1144.85,1505.03 -1717.28,2257.55 -369.57,0 -739.12,-0.01 -1108.69,-0.01 750.1,-749.3 1500.19,-1498.59 2250.29,-2247.89 -75.01,2.12 -150.01,4.25 -225.02,6.37z"/>
   <polygon class="fil1" points="6985.53,15680.19 12546.83,15680.19 12546.83,21187.52 6985.53,21187.52 "/>
   <path class="fil3" d="M13330.69 15831.56l3732.09 0 0 5558.43 -1191.09 0 0 -4367.34 -1349.9 0 0 4367.34 -1191.1 0 0 -5558.43zm4367.34 0l3732.09 0 0 3890.9 -2540.99 0 0 1667.53 -1191.1 0 0 -5558.43zm1191.1 1191.09l0 1508.72 1349.9 0 0 -1508.72 -1349.9 0zm3136.53 -1191.09l3732.09 0 0 5558.43 -3732.09 0 0 -5558.43zm1191.1 1191.09l0 3176.25 1349.9 0 0 -3176.25 -1349.9 0zm3136.54 3692.39l0 -4248.23 2064.56 0 0 -833.76 1191.09 0 0 833.76 2064.56 0 0 4248.23 -2064.56 0 0 936.99 -1191.09 0 0 -936.99 -2064.56 0zm1191.09 -1111.69l913.17 0 0 -2024.85 -913.17 0 0 2024.85zm2024.86 -2024.85l0 2024.85 913.17 0 0 -2024.85 -913.17 0zm3040.18 -7703.52l7731.51 0 0 11515.01 -2467.5 0 0 -9047.51 -2796.51 0 0 9047.51 -2467.5 0 0 -11515.01zm9047.51 0l7731.51 0 0 11515.01 -7731.51 0 0 -11515.01zm2467.5 2467.5l0 6580.01 2796.51 0 0 -6580.01 -2796.51 0zm7484.76 -2467.5l6366.16 0 0 11515.01 -2467.5 0 0 -9047.51 -1743.71 0 -1118.6 9047.51 -2944.55 0 0 -2467.5 888.3 0 1019.9 -9047.51z"/>
   <path class="fil4" d="M26380.19 22212.54l267.33 0 0 484.76 302.97 0 0 -484.76 267.33 0 0 1247.54 -267.33 0 0 -495.45 -302.97 0 0 495.45 -267.33 0 0 -980.21 0 -267.33zm1039.02 0l639.81 0 121.19 1247.54 -267.33 0 -26.73 -294.06 -294.07 0 -26.73 294.06 -267.33 0 121.19 -1247.54zm196.04 686.15l247.73 0 -39.21 -418.82 -169.31 0 -39.21 418.82zm645.16 -686.15l837.63 0 0 1247.54 -267.33 0 0 -980.21 -302.97 0 0 980.21 -267.33 0 0 -1247.54zm980.21 0l837.63 0 0 1247.54 -837.63 0 0 -1247.54zm267.33 267.33l0 712.88 302.97 0 0 -712.88 -302.97 0zm810.89 -267.33l689.72 0 0 1247.54 -267.33 0 0 -980.21 -188.92 0 -121.19 980.21 -319.01 0 0 -267.33 96.24 0 110.49 -980.21zm832.29 1247.54l0 -980.21 0 -267.33 267.33 0 0 458.03 552.48 0 0 789.51 -819.81 0zm267.33 -522.18l0 254.85 285.15 0 0 -254.85 -285.15 0zm686.15 -725.36l267.33 0 0 484.76 302.97 0 0 -484.76 267.33 0 0 1247.54 -267.33 0 0 -495.45 -302.97 0 0 495.45 -267.33 0 0 -980.21 0 -267.33zm980.21 1247.54l0 -980.21 0 -267.33 267.33 0 0 458.03 552.48 0 0 789.51 -819.81 0zm267.33 -522.18l0 254.85 285.15 0 0 -254.85 -285.15 0zm730.7 -725.36l267.33 0 0 1247.54 -267.33 0 0 -1247.54zm409.91 0l819.81 0 0 267.33 -552.48 0 0 222.78 281.59 0 0 267.33 -281.59 0 0 222.77 552.48 0 0 267.33 -819.81 0 0 -1247.54zm1350.9 0l837.63 0 0 1247.54 -267.33 0 0 -980.21 -302.97 0 0 980.21 -267.33 0 0 -1247.54zm980.21 0l837.63 0 0 1247.54 -837.63 0 0 -1247.54zm267.33 267.33l0 712.88 302.97 0 0 -712.88 -302.97 0zm980.21 484.76l0 495.45 -267.33 0 0 -980.21 0 -267.33 267.33 0 0 484.76 122.97 0 233.47 -484.76 281.59 0 -301.2 602.38 319.02 645.16 -294.07 0 -238.81 -495.45 -122.97 0zm709.32 -752.09l837.63 0 0 873.28 -570.3 0 0 374.26 -267.33 0 0 -1247.54zm267.33 267.33l0 338.62 302.97 0 0 -338.62 -302.97 0zm703.97 980.21l0 -980.21 0 -267.33 267.33 0 0 458.03 552.48 0 0 789.51 -819.81 0zm267.33 -522.18l0 254.85 285.15 0 0 -254.85 -285.15 0zm730.7 -725.36l267.33 0 0 1247.54 -267.33 0 0 -1247.54zm347.53 0l837.63 0 0 267.33 -285.15 0 0 980.21 -267.33 0 0 -980.21 -285.15 0 0 -267.33zm1538.04 0l267.33 0 0 1247.54 -267.33 0 0 -744.96 -352.87 744.96 -267.33 0 0 -980.21 0 -267.33 267.33 0 0 744.96 352.87 -744.96zm1254.67 0l0 1247.54 -267.33 0 0 -409.91 -126.54 0 -201.38 409.91 -302.98 0 228.12 -418.82 -167.52 0 0 -828.72 837.63 0zm-267.33 267.33l-302.97 0 0 302.97 302.97 0 0 -302.97zm951.69 -267.33l689.72 0 0 1247.54 -267.33 0 0 -980.21 -188.92 0 -121.19 980.21 -319.01 0 0 -267.33 96.24 0 110.49 -980.21zm1277.84 0l784.17 0 0 1247.54 -784.17 0 0 -495.45 -178.22 0 0 495.45 -267.33 0 0 -1247.54 267.33 0 0 484.76 178.22 0 0 -484.76zm249.51 267.33l0 712.88 267.33 0 0 -712.88 -267.33 0zm677.23 980.21l0 -1247.54 837.63 0 0 267.33 -570.3 0 0 208.52 570.3 0 0 771.69 -837.63 0zm267.33 -267.33l302.97 0 0 -237.03 -302.97 0 0 237.03zm712.88 -980.21l837.63 0 0 1247.54 -837.63 0 0 -1247.54zm267.33 267.33l0 712.88 302.97 0 0 -712.88 -302.97 0zm712.88 -267.33l739.61 0 0 267.33 -472.28 0 0 980.21 -267.33 0 0 -1247.54zm816.24 0l837.63 0 0 1247.54 -837.63 0 0 -1247.54zm267.33 267.33l0 712.88 302.97 0 0 -712.88 -302.97 0zm1119.22 828.72l0 -953.47 463.37 0 0 -187.13 267.33 0 0 187.13 463.37 0 0 953.47 -463.37 0 0 210.3 -267.33 0 0 -210.3 -463.37 0zm267.33 -249.5l204.95 0 0 -454.47 -204.95 0 0 454.47zm454.46 -454.47l0 454.47 204.95 0 0 -454.47 -204.95 0zm605.95 -392.08l837.63 0 0 1247.54 -837.63 0 0 -1247.54zm267.33 267.33l0 712.88 302.97 0 0 -712.88 -302.97 0zm712.88 -267.33l837.63 0 0 873.28 -570.3 0 0 374.26 -267.33 0 0 -1247.54zm267.33 267.33l0 338.62 302.97 0 0 -338.62 -302.97 0zm703.97 -267.33l267.33 0 254.85 456.24 254.86 -456.24 267.33 0 0 1247.54 -267.33 0 0 -809.12 -254.86 449.12 -254.85 -449.12 0 809.12 -267.33 0 0 -980.21 0 -267.33zm1245.76 0l639.81 0 121.19 1247.54 -267.33 0 -26.73 -294.06 -294.07 0 -26.73 294.06 -267.33 0 121.19 -1247.54zm196.04 686.15l247.73 0 -39.21 -418.82 -169.31 0 -39.21 418.82zm516.84 -686.15l837.63 0 0 267.33 -285.15 0 0 980.21 -267.33 0 0 -980.21 -285.15 0 0 -267.33zm976.65 0l639.81 0 121.19 1247.54 -267.33 0 -26.73 -294.06 -294.07 0 -26.73 294.06 -267.33 0 121.19 -1247.54zm196.04 686.15l247.73 0 -39.21 -418.82 -169.31 0 -39.21 418.82z"/>
   <path class="fil2" d="M7411.63 17286.64l0 15.9c7.47,6.65 5.23,3.85 12.76,13.21l529.7 944.85c42.87,-4.54 132.57,-32.85 177.88,-45.54 61.67,-17.27 117.95,-31.13 178.06,-48.25l539.53 -144.82c136.37,-33.2 59.98,-29.29 122.88,-109.66 33.57,-42.9 73.65,-78.06 110.79,-115.34 42.71,-42.85 67.18,-66.76 141.05,-89.82l259.59 -971.39 -242.94 -137.33c-110.52,-64.38 -696.81,-398.4 -732.99,-405.22l-432.92 412.44c27.07,33.59 123.95,84.17 167,111.22l516.72 326.35c1.89,25.02 -96.14,359.12 -111.31,377.99 -13.23,16.46 -337.52,111.91 -381.1,120.47l-377.01 -600.14c-14.81,-22.82 -39.72,-60.1 -53.56,-88.42 -36.49,19.35 -77.44,77.28 -108.15,107.43 -38.07,37.39 -66.36,68.85 -102.79,107.72l-153.33 162.57c-10.2,10.51 -16.38,16.72 -26.13,26.72 -14.77,15.16 -18.38,19.05 -33.73,29.06zm2372.38 807.22c-15.13,27.63 -51.05,60.27 -73.57,82.21l-222.97 237.9c136.21,60.24 238.8,131.08 301.35,284.45 34.43,-17.88 86.43,-78.96 112.09,-106.38 25.68,-27.45 83.39,-97.77 116.23,-113.28 7.05,-28.22 597.36,-626.55 678.2,-709.68 46.39,-47.71 187.67,-209.43 229.31,-233.95 49.19,28.67 93.65,70.84 173.3,70.18 91.32,-0.77 87.98,-58.42 197.26,-7.57 61.54,28.65 260.13,153.82 298.13,197.76 -17.63,39.8 -51.77,42.07 -68.74,103.17 -25.76,92.71 46.23,190.41 157.23,172.84 70.99,-11.24 225.86,-190.32 277.31,-241.96l126.85 -129.12c15.27,-18.15 19.97,-36.34 34.74,-55.64l0 -67.83c-19.51,-27.81 -17.73,-44.33 -48.8,-71.26 -112.65,-97.62 -223.44,46.59 -248.01,59.22 -13.3,-37.26 -57.22,-85.8 -80.51,-129.58 -65.01,-122.21 54.67,-108.72 -197.01,-457.21 -95.79,-132.63 -90.04,-120.6 -205.12,-231.03l-355.13 -291.78c-221.7,-156.51 -492.33,-301.67 -775.84,-316.69 -109.82,-5.82 -302.24,13.61 -367.67,68.65 17.05,42.99 91.48,41.21 185.51,61.92 69.31,15.26 133.89,36.42 196.6,59.58 217.6,80.36 495.48,277.21 462.77,538.73 -17.3,138.33 -108.63,163.01 -99.9,272.29 4,50.08 27.17,56.7 33.15,91.51 -107.09,120.06 -204.25,209.97 -309.11,319.58 -37.23,38.92 -68.77,73.21 -106.21,112.33 -9.49,9.91 -401.82,425.82 -421.44,430.64zm-454.1 394.64c-38.08,25.63 -48.99,21.15 -86.83,55.06l-462.74 409.89c-29.12,27.3 -45.84,40.33 -74.46,68.61l-465.8 414.49c-57.58,49.88 -104.16,88.83 -151.66,134.2 -114.85,109.72 -265.71,236.48 -390.51,346.49 -75.43,66.5 -174.46,143.96 -200.2,228.45 -62.12,204.02 83.99,310.16 166,391.68 103.85,103.19 161.48,205.48 394.82,191.39 68.08,-27.25 80.94,-19.22 131.92,-70.76l404.25 -453.22c15.22,-18.25 31.04,-34.16 49.85,-55.2 21.47,-24.05 26.29,-32.69 53.17,-60.01l1012.74 -1135.64c53.65,-163.14 13.33,-239.06 -69.84,-340.91 -68.18,-83.51 -171.96,-146.34 -310.71,-124.52zm1944 1466.12c116.88,-39.15 209.85,44.6 235.71,129.45 74.82,245.47 -299.18,346.17 -368.92,113.45 -31.94,-106.62 18.4,-204.43 133.21,-242.9zm-1176.52 -1459.49c-25.41,40.02 -127.34,142.9 -165.35,180.78 -35.37,35.25 -53.57,53.59 -82.78,82.63 -23.45,23.32 -31.26,40.19 -33.06,54.35 -10.34,81.84 -2.16,81.57 -32.29,171.17 31.51,48.99 315.31,336.4 391.54,425.55 133.66,156.33 441.65,477.64 597.04,644.51l496.63 534.48c49.38,29.48 128.98,-16.56 164.68,-35 130.37,-67.38 344.06,-276.38 383.23,-436.09 18.54,-75.52 -29.16,-97.09 -66.93,-130.89l-429.7 -397.97c-161.87,-140.15 -372.97,-348.01 -538.69,-499.53 -17.98,-16.43 -201.94,-181.14 -208.37,-199.63 -36.99,-22.15 -178.28,-161.74 -227.38,-206.84 -39.61,-36.4 -68.73,-59.44 -110.4,-100.24 -35.43,-34.7 -69.34,-60.94 -108.3,-100.76 -23.32,8.17 -11.81,10.29 -29.87,13.48zm-795.41 -71.61c40.54,-41.29 44.21,16.97 115.49,-58.8l210.19 -218.66c10.11,-10.01 13.5,-14.88 21.99,-23.1 20.39,-19.73 8.66,-10.84 29.32,-20.7 2.8,-11.68 -0.84,-0.13 4.31,-13.67 0.63,-1.64 3.38,-7.21 5.74,-13.57 -52.89,-49.49 -102.99,-95.65 -159.54,-148.25 -32.42,-30.15 -52.47,-47.7 -82.23,-75.6 -25.34,-23.74 -60.21,-62.98 -87.29,-74.3 -62.24,78.33 -55.47,158.23 -243.54,302.01 -38.64,29.55 -73.21,38.69 -114.35,65.86 65.87,62.72 196.49,219.82 246.3,266.85 28.54,26.93 12.06,13.15 53.61,11.93z"/>
  </g>
 </g>
</svg>
