<svg id="Layer_1" data-name="Layer 1" xmlns="http://www.w3.org/2000/svg" viewBox="0 0 150 150"><path fill="#0085E1" d="M47,119.61c0,4.84,0,9.47,0,14.11a7.64,7.64,0,0,1-.49,2.54c-1.43,3.69-3,7.35-4.38,11.05a2.89,2.89,0,0,1-3,2.05q-14.3-.06-28.59,0A2.92,2.92,0,0,1,7.32,147C5,140,2.65,133,.34,126a6.22,6.22,0,0,1-.3-2c0-17.76,0-35.51,0-53.26a3.82,3.82,0,0,1,1.53-3.17c5-4.21,9.85-8.47,14.81-12.66a2.6,2.6,0,0,0,1-2.24q0-22,0-44c0-5,3-8,8-8H78.61c4.94,0,8,3,8,8q0,28.88,0,57.75a6.91,6.91,0,0,0,1.06,3.92c1,1.5,1.82,3.08,2.75,4.68,3.07-4.33,7.56-6.17,13.38-3.69a10,10,0,0,1,6.8-6.15,9.92,9.92,0,0,1,8.9,2,10.16,10.16,0,0,1,7-5.23c4.08-.77,7.58.47,9.87,3.87a70.84,70.84,0,0,1,6.39,11.27c1.28,3,1.68,6.34,2.29,9.57,1.67,8.85,3.23,17.72,4.86,26.58.47,2.52.23,3.13-2,4.41l-40.88,23.65c-2.2,1.27-2.75,1.23-4.67-.41q-11.77-10-23.52-20.07a4.89,4.89,0,0,0-3.44-1.31c-8.81.07-17.61,0-26.42,0Zm38-14.18L84,103.88Q78.39,94.1,72.76,84.33a5,5,0,0,0-4.15-2.81,4.65,4.65,0,0,0-4.46,2.26,4.76,4.76,0,0,0,0,5.27c4.53,7.85,9,15.72,13.62,23.54a12.88,12.88,0,0,0,2.69,3.15c7.86,6.76,15.77,13.45,23.64,20.19a1.44,1.44,0,0,0,2,.19q18.75-10.92,37.55-21.74a1.63,1.63,0,0,0,.94-2.07C143,104.11,141.6,95.89,140,87.7a53.49,53.49,0,0,0-2.56-9.8,54.91,54.91,0,0,0-4.8-8.45,6.38,6.38,0,0,0-2.32-2.15,4.68,4.68,0,0,0-5.52,1A4.78,4.78,0,0,0,124,74c1.18,2.21,2.47,4.36,3.76,6.61l-4.28,2.48c-.33-.56-.6-1-.86-1.43-1.81-3.12-3.58-6.26-5.44-9.35a4.88,4.88,0,0,0-9,3.34,7.77,7.77,0,0,0,1,2.41c1.86,3.31,3.77,6.59,5.72,10l-4.31,2.5c-2.43-4.22-4.78-8.33-7.16-12.42a4.93,4.93,0,0,0-6.86-2.11,5,5,0,0,0-1.65,7c2.08,3.67,4.21,7.32,6.32,11,.27.48.52,1,.81,1.5L97.82,98c-.36-.59-.63-1-.89-1.46Q82.16,70.91,67.38,45.26a13.72,13.72,0,0,0-.81-1.32A4.83,4.83,0,0,0,61,42.18a4.67,4.67,0,0,0-3.18,4.93,8,8,0,0,0,1.06,3q14.74,25.67,29.54,51.3c.27.48.53,1,.85,1.55Zm-3.64-46,.32-.13V10.82c0-.88,0-1.76,0-2.64a2.34,2.34,0,0,0-2.13-2.46c-1.93-.15-3.88,0-5.79,0-.64,2.54-1.23,4.94-1.85,7.33-.54,2.06-1.16,2.53-3.23,2.53q-16.7,0-33.38,0c-2,0-2.62-.47-3.14-2.44-.65-2.47-1.27-4.94-1.91-7.47H26.06c-3.1,0-3.79.71-3.79,3.85V110.73c0,3.29.68,4,4,3.93.4,0,.81,0,1.25-.07.11-.62.23-1.17.33-1.73,1.23-7.31,2.43-14.63,3.71-21.93a7.17,7.17,0,0,1,7.19-6c1.49,0,3,0,4.48,0,5.12,0,8.48,3.84,7.71,8.92-.58,3.92-1.31,7.82-2,11.73-.49,3-1,6-1.48,9H73c-.31-.6-.55-1.1-.83-1.57-4-7-8.1-14.12-12.19-21.15a9.7,9.7,0,0,1-1.45-6.8A37.18,37.18,0,0,1,60.3,80H58.82Q47,80,35.18,80c-2.16,0-3-.83-3-3,0-12.08,0-24.15,0-36.23a3.91,3.91,0,0,1,1-2.45C37,34.3,41,30.37,45,26.47a3.34,3.34,0,0,1,2-1c7.47-.07,14.94-.06,22.41,0a2.29,2.29,0,0,1,2.35,2.36c.06,1.08,0,2.17,0,3.25,0,3.92-.7,8,.28,11.71s3.63,6.75,5.55,10.1Zm-64,1.2c-4,3.46-7.74,6.62-11.39,9.87a3.07,3.07,0,0,0-.94,2Q4.93,97.75,5,123a5.22,5.22,0,0,0,.22,1.67q3.08,9.38,6.25,18.73a1.7,1.7,0,0,0,1.22,1q12.14.09,24.25,0a1.63,1.63,0,0,0,1.24-.77c2.42-5.46,4.71-10.92,4-17.17a72.05,72.05,0,0,1,0-8.82,11.23,11.23,0,0,1,.14-1.84q1.9-11.36,3.82-22.69a2.52,2.52,0,0,0-2.49-3.17c-1.54-.08-3.09-.07-4.63,0A2.36,2.36,0,0,0,36.45,92c-.2,1.11-.4,2.23-.59,3.34-1.23,7.31-2.44,14.63-3.69,21.93a2.4,2.4,0,0,1-2.73,2.32c-1.34,0-2.68,0-4,0-5.06,0-8.08-3-8.09-8v-51ZM49.47,30.47c0,3.25,0,6.34,0,9.43,0,2-.88,2.88-2.93,2.9-.72,0-1.44,0-2.16,0H37.24V74.94H67.29c-.36-.67-.63-1.21-.93-1.73C62.25,66.07,58.08,59,54,51.78a9.73,9.73,0,0,1,6.3-14.56c2-.44,4.23-.07,6.37-.07V30.47Zm19-24.77H35.42l1.15,4.8H67.33ZM44.41,37.82v-3l-3.07,3Z"/></svg>
