<svg id="Layer_1" data-name="Layer 1" xmlns="http://www.w3.org/2000/svg" viewBox="0 0 150 150"><path fill="#0085E1" d="M131.14,31c-.14,1.22-.27,2.44-.42,3.65-.3,2.31.58,3.56,2.77,4.31a36.88,36.88,0,0,1,6.19,2.44c4.6,2.53,6.22,6.54,4.84,11.6a18.07,18.07,0,0,1-2,4.85c-2.32,3.68-1.25,5.21,1.43,7.27a19.91,19.91,0,0,1,3.95,4.14c2.79,3.85,2.79,8-.12,11.81a32.87,32.87,0,0,1-4.86,4.79c-1.82,1.55-2.23,3.06-1,5.16a20.65,20.65,0,0,1,3,8c.4,3.41-.59,6.36-3.34,8.3a29.28,29.28,0,0,1-7.07,3.49c-3.61,1.27-4.09,2-3.69,5.8a20.35,20.35,0,0,1-.23,6.33c-1.22,5.61-5.68,8.59-11.92,8.28-1.11,0-2.23-.17-3.33-.33-2.33-.34-3.69.65-4.38,2.89a29.56,29.56,0,0,1-2.36,6.05c-2.68,4.68-7,6.31-12.11,4.72a32.43,32.43,0,0,1-5.37-2.36c-2.46-1.27-4-.93-5.54,1.37a15.55,15.55,0,0,1-5.67,5.26c-3.55,1.92-7.14,1.88-10.39-.45a34,34,0,0,1-5.36-5.17c-1.66-1.86-3.33-2.27-5.44-.92A15.94,15.94,0,0,1,50.53,145a9.36,9.36,0,0,1-8.76-4.56,35.49,35.49,0,0,1-2.9-6.85,3.71,3.71,0,0,0-4.31-2.81,28.29,28.29,0,0,1-6.82,0c-5.73-1-8.77-4.79-8.92-10.89a39.67,39.67,0,0,1,.32-4.61c.23-2.5-.66-3.63-3-4.22a25.12,25.12,0,0,1-5.1-1.73c-5.3-2.64-7.27-7.27-5.5-12.92a33.33,33.33,0,0,1,2.34-5.22c1.28-2.45,1-3.88-1.19-5.48-3-2.12-5.49-4.6-6.38-8.29-1.13-4.69,1.33-10,5.93-13,2.85-1.84,3-2.92,1.48-6.06A31.27,31.27,0,0,1,5,50.66,8.31,8.31,0,0,1,9.17,41.8,27.76,27.76,0,0,1,16,39c2.43-.71,3.31-1.74,3.14-4.33a37.39,37.39,0,0,1-.07-6.52,9.64,9.64,0,0,1,9-9,38.35,38.35,0,0,1,6.34,0c2.68.17,3.69-.54,4.48-3.18a28.24,28.24,0,0,1,1.92-5c2.69-5.13,7.5-7.13,13-5.38a27.33,27.33,0,0,1,5,2.38A3.7,3.7,0,0,0,64,7,39.6,39.6,0,0,1,67.49,3.1c4.66-4.19,9.87-4.32,14.68-.32a21.26,21.26,0,0,1,3.49,3.9c1.43,2,3,2.39,5.21,1.28A38,38,0,0,1,96.08,5.6c5.6-1.82,10.12,0,12.87,5.2a27.7,27.7,0,0,1,2,5.35c.68,2.36,1.82,3.13,4.3,3a32.61,32.61,0,0,1,7.59.1C128.16,20.28,131.09,24.68,131.14,31ZM26.05,33.23c0,6.88-2.68,10.7-8.62,12.71-.95.32-1.93.56-2.9.83a3.53,3.53,0,0,0-2.34,5.34c.76,1.47,1.58,2.91,2.19,4.43,1.86,4.68,1.06,8.88-2.53,12.45A38.07,38.07,0,0,1,8.6,71.82c-2.41,1.92-2.45,4.25-.13,6.26A44.44,44.44,0,0,1,12.65,82a9.86,9.86,0,0,1,2,10.69,55.53,55.53,0,0,1-2.46,5.17,3.55,3.55,0,0,0,2.35,5.35,34.9,34.9,0,0,1,4.82,1.6c3.65,1.64,6,4.42,6.44,8.47a42.9,42.9,0,0,1-.06,6.51c-.16,3.41,1.29,4.8,4.7,4.43a41.5,41.5,0,0,1,4.45-.26c5.29,0,8.42,2.25,10.29,7.22.58,1.54,1,3.13,1.67,4.65,1,2.49,3.07,3.12,5.44,1.84a37,37,0,0,1,4.44-2.15,10.52,10.52,0,0,1,12.11,2.68c1.07,1.11,2,2.31,3.1,3.44a3.76,3.76,0,0,0,6-.09c1-1.13,2-2.26,3-3.35,3.44-3.71,7.48-4.63,12.14-2.55,1.79.8,3.55,1.68,5.38,2.38,2.29.87,4-.09,4.61-2.44.11-.41.19-.83.29-1.24,1.41-5.37,4.11-9.52,10.13-10.24a24.38,24.38,0,0,1,5.4.08c4.37.47,5.76-.9,5.07-5.18,0-.21-.08-.42-.11-.63-1-7.5,1.81-12,9-14.37,1-.32,1.94-.56,2.88-.93a3.51,3.51,0,0,0,1.91-5.21c-.2-.38-.43-.74-.64-1.11-4.41-7.85-3.19-13.32,4.14-18.55,2.44-1.75,2.55-4.21.27-6.25-1.27-1.14-2.62-2.2-3.79-3.42A10,10,0,0,1,135,58.25a31.27,31.27,0,0,1,2.44-5.68c1.45-2.77.72-4.86-2.25-5.87-1.15-.39-2.33-.73-3.47-1.13-5.38-1.91-7.94-5.51-7.92-11.23,0-1.86.31-3.71.35-5.57a2.65,2.65,0,0,0-2.79-3,23.61,23.61,0,0,0-3.66.17c-7.22.81-12-2.37-14-9.38-.15-.51-.26-1-.39-1.54-.78-3.24-2.61-4.13-5.66-2.77-1.79.8-3.58,1.63-5.4,2.36a9.16,9.16,0,0,1-10.43-2.07c-1.3-1.25-2.49-2.62-3.67-4-1.92-2.23-4.26-2.28-6.28-.13a59.28,59.28,0,0,1-4.57,4.67,9,9,0,0,1-8.68,1.83,31.11,31.11,0,0,1-5.86-2.4c-3.07-1.6-5-.94-6.19,2.35-.73,2-1.39,4-2.31,5.93a8.23,8.23,0,0,1-7,4.93c-2.63.21-5.29,0-7.94,0-2.37,0-3.67,1.29-3.59,3.66C25.78,30.87,26,32.36,26.05,33.23Z"/><path fill="#0085E1" d="M122.6,75A47.69,47.69,0,1,1,75,27.24,47.77,47.77,0,0,1,122.6,75ZM74.91,116a40.93,40.93,0,1,0-40.85-41A41.07,41.07,0,0,0,74.91,116Z"/><path fill="#0085E1" d="M68.44,84a9.13,9.13,0,0,1,1-1.53Q80.79,71.08,92.2,59.69a7,7,0,0,1,2-1.52,3.26,3.26,0,0,1,3.84,1.14,3.17,3.17,0,0,1,.18,3.86,8,8,0,0,1-1.15,1.32Q84.18,77.44,71.26,90.36c-2.35,2.35-4,2.34-6.36,0C60.72,86.14,56.53,82,52.39,77.77c-2.21-2.23-1.47-5.4,1.38-6.1A3.59,3.59,0,0,1,57.32,73c3.2,3.19,6.39,6.4,9.59,9.59C67.28,83,67.67,83.3,68.44,84Z"/></svg>
