<svg id="Layer_1" data-name="Layer 1" xmlns="http://www.w3.org/2000/svg" viewBox="0 0 150 150"><path fill="#0085E1" d="M111.2,0c2.38.49,4.8.84,7.13,1.47A38.87,38.87,0,0,1,112,77.58a39.8,39.8,0,0,1-13.66-.92A4.38,4.38,0,0,0,96,76.8c-4.8,1.76-9.57,3.61-14.35,5.42-3.09,1.16-4.81,0-4.81-3.39,0-5,0-10.06,0-15.08a4.77,4.77,0,0,0-.8-2.54C59.62,37.93,73.39,5.15,101.47.57c1-.17,2-.36,3-.55ZM82.65,75.48c.77-.25,1.23-.39,1.68-.56,3.65-1.38,7.26-2.84,11-4.1a7.68,7.68,0,0,1,3.38-.16c2.46.31,4.88,1,7.34,1.17,20.1,1.32,36.86-16.21,34.73-36.25A33.06,33.06,0,0,0,104,6.13C80.47,8.7,67.27,35.27,79.41,55.71c3.33,3.37,3.55,7.56,3.27,11.94C82.52,70.17,82.65,72.7,82.65,75.48Z"/><path fill="#0085E1" d="M3.64,68.06a23.51,23.51,0,0,1,6.82-16.77c3.27-3.43,6.63-6.77,10-10.06a9.46,9.46,0,0,1,12-1.25A65.07,65.07,0,0,1,53.79,61.12a9.7,9.7,0,0,1-1.4,12.33,38.11,38.11,0,0,0-4.23,5A9.18,9.18,0,0,0,48,88.82a12,12,0,0,0,1.77,2.5c4.14,4.21,8.25,8.45,12.54,12.51a10.35,10.35,0,0,0,8.94,3.11,12.76,12.76,0,0,0,6.41-3.33c.95-.83,1.82-1.77,2.73-2.65A9.42,9.42,0,0,1,92,99.55a63.5,63.5,0,0,1,21.84,22,9.33,9.33,0,0,1-1.24,11.26c-3.51,3.66-7,7.33-10.8,10.73-7.88,7.1-17,7.94-26.66,4.51-8.29-2.94-15.23-8-21.46-14.12-2.41-2.36-4.77-4.76-7.15-7.14-1.79-1.8-2-3.48-.63-4.82s3-1,4.74.64c4.38,4.15,8.63,8.49,13.26,12.37a39,39,0,0,0,17.2,8.67c6.29,1.28,12,0,16.72-4.41,3.55-3.28,6.91-6.76,10.3-10.2a3.7,3.7,0,0,0,.5-4.83,59.39,59.39,0,0,0-19.31-19.47c-1.85-1.16-3.42-.92-5,.6-1.32,1.23-2.57,2.55-4,3.64-6.91,5.33-14.53,5.43-21.13-.27A138.65,138.65,0,0,1,45.52,95.26c-6.87-7.82-6.47-16.18.62-23.85.73-.78,1.54-1.5,2.27-2.29a3.72,3.72,0,0,0,.51-4.71A59.43,59.43,0,0,0,29.26,44.9a3.53,3.53,0,0,0-4.69.55c-3.44,3.39-6.94,6.74-10.21,10.28C9.14,61.38,8.42,68,10.6,75.13c2.28,7.44,6.68,13.63,11.9,19.26,2.75,3,5.69,5.76,8.54,8.64a10.17,10.17,0,0,1,1.08,1.19,2.84,2.84,0,0,1-.34,3.74,2.8,2.8,0,0,1-3.75.23C18.8,99.37,9.54,90.54,5.39,78a96.91,96.91,0,0,1-2.16-9.79Z"/><path fill="#0085E1" d="M38.71,112a3,3,0,0,1,2.95,2.84,2.91,2.91,0,0,1-2.79,3,2.84,2.84,0,0,1-3-2.88A2.9,2.9,0,0,1,38.71,112Z"/><path fill="#0085E1" d="M105.33,32c0-3.52,0-7,0-10.54,0-2.09,1.2-3.47,2.94-3.45s2.91,1.4,2.91,3.51q0,10.53,0,21.07c0,2.09-1.22,3.46-3,3.44s-2.88-1.37-2.88-3.49C105.32,39,105.33,35.46,105.33,32Z"/><path fill="#0085E1" d="M111.16,56.52a3,3,0,0,1-2.89,2.91,2.94,2.94,0,0,1-2.93-3,2.89,2.89,0,0,1,2.94-2.82A3,3,0,0,1,111.16,56.52Z"/></svg>
