<svg id="Layer_1" data-name="Layer 1" xmlns="http://www.w3.org/2000/svg" viewBox="0 0 150 150"><path fill="#0085E1" d="M0,10.76v-7A5.79,5.79,0,0,1,3.79-.08H122.15c1.94.92,3.51,2.16,3.58,4.53.06,1.85.08,3.71,0,5.56a4.63,4.63,0,0,1-3.61,4.27l-1.06.28v4.71h1.66c5.86,0,11.72,0,17.57,0a9.6,9.6,0,0,1,9.62,8.52,43.64,43.64,0,0,1,.08,5.12c0,6.56-4,10.56-10.59,10.58H121.08V58h21C147,58,150,61,150,65.84q0,30.82,0,61.66c0,4.89-2.92,7.88-7.81,7.89q-18.82,0-37.65,0a9.15,9.15,0,0,1-3.93-.89c-2.81-1.42-3.86-3.95-3.86-7q0-19.33,0-38.67c0-.56,0-1.13-.07-1.67H29.09l66.5,62.81H0V59.69l4.75,4.38c0-.75.08-1.22.09-1.69V16.05a2.29,2.29,0,0,0,0-.87c-.13-.3-.38-.74-.63-.78C2,14.07.83,12.61,0,10.76ZM75.06,57.94h41V43.5h-1.79c-12.84,0-25.68,0-38.52,0a5,5,0,0,1-2.55-.78C69.05,40,65,37.31,61,34.6l-4.78-3.21c.52-.37.9-.66,1.31-.93C62.71,27,67.93,23.46,73.2,20a4.62,4.62,0,0,1,2.42-.72c12.89-.05,25.78,0,38.66,0H116V14.52H9.75c0,.41-.09.74-.09,1.07q0,26.07,0,52.14a2.86,2.86,0,0,0,.86,1.83c4.08,3.94,8.22,7.79,12.31,11.71a3.2,3.2,0,0,0,2.45,1q34.86,0,69.71,0h1.59V72.45H75.11V67.54H96.65c.11-1.64.21-3.12.32-4.73H75.06Zm26.56,38.77v30.46c0,2.67.72,3.4,3.35,3.4q18.38,0,36.75,0c2.68,0,3.42-.71,3.42-3.36q0-30.52,0-61c0-2.61-.7-3.3-3.3-3.3h-36.9c-2.67,0-3.32.67-3.32,3.4ZM83.31,145C57.06,120.18,31.1,95.67,4.92,71V87H9.58v4.87H5v4.8H9.56v4.88H4.92v4.79H9.53v4.93H4.94v4.74H9.56v4.88H4.91v4.79H9.54v4.93H4.93v4.75H9.57v4.92H5V145ZM120.88,4.91H5V9.49H120.88ZM77.47,24.23v4.6h53.08v-4.6Zm0,14.29h53.08V33.89H77.47Zm58.1-14.29V38.62h4.18a11.43,11.43,0,0,0,1.17,0,4.6,4.6,0,0,0,4.11-4.1,43.74,43.74,0,0,0,0-6.27,4.31,4.31,0,0,0-3.72-3.94C139.43,24.09,137.52,24.23,135.57,24.23Zm-63,2-7.68,5.11,7.68,5.11Z"/><path fill="#0085E1" d="M33.08,73.58c-3-3.78-5.82-7.27-8.62-10.76-1.25-1.56-2.22-3.67-3.85-4.51s-3.88-.35-6-.45V53.2c2.67,0,5.38,0,8.08,0,.33,0,.68.5.94.83,1.69,2.08,3.36,4.19,5,6.28.29.36.62.69,1.11,1.24,1.47-11,2.91-21.75,4.35-32.57H50.67v4.77H38.4C36.63,47,34.88,60.14,33.08,73.58Z"/><path fill="#0085E1" d="M55.56,59,45.32,69.29l-3.18-3.43,10.06-10L41.71,45.39l3.62-3.65L55.56,52.05,65.78,41.78l3.35,3.46L59,55.36,69.56,65.73l-3.69,3.58Z"/><path fill="#0085E1" d="M111.21,48.39v4.7H75.1v-4.7Z"/><path fill="#0085E1" d="M140.21,86.92H106.5V67.76h33.71Zm-4.84-14.29h-24V82.1h24Z"/><path fill="#0085E1" d="M120.86,101.56h-4.68v4.66h-4.86v-4.65H106.5V96.73h4.75V92h4.82v4.68h4.79Z"/><path fill="#0085E1" d="M139.74,121.33l-3.6,3.65-3-3.35-2.95,3.59-3.68-3.91,3.39-2.72c-1.34-1.14-2.4-2-3.4-2.89l3.79-3.78,2.6,3.34,2.91-3.24,3.49,3.63-3.22,2.59Z"/><path fill="#0085E1" d="M140.2,101.49H125.87V96.75H140.2Z"/><path fill="#0085E1" d="M120.91,111.33v4.59h-14.4v-4.59Z"/><path fill="#0085E1" d="M106.48,125.58V121h14.38v4.56Z"/><path fill="#0085E1" d="M14.65,93.45,59,135.29H14.65Zm4.79,11.18v25.85H46.81Z"/></svg>
