<svg id="Layer_1" data-name="Layer 1" xmlns="http://www.w3.org/2000/svg" viewBox="0 0 150 150"><path fill="#0085E1" d="M52.47,83.62c0-6.56,0-12.9,0-19.25a2.49,2.49,0,0,0-.67-1.46c-.9-1-1.9-1.93-2.86-2.89-1.56-1.57-1.82-2.87-.83-4.08s2.29-1.16,4.27.17c0-.44.12-.81.12-1.19,0-5.88,0-11.76,0-17.64a3.43,3.43,0,0,0-.84-2c-.86-1-1.89-1.94-2.84-2.9-1.42-1.46-1.64-2.82-.63-4s2.22-1.08,3.87.05a2.34,2.34,0,0,0,.48.12V26c0-2.38.28-2.78,2.54-3.7l24.21-9.92q14.55-6,29.12-11.9a6,6,0,0,1,2.1-.42c2.92,0,5.83,0,8.75,0,2.46,0,3.26.83,3.26,3.3q0,30.68,0,61.36a3.81,3.81,0,0,0,1.23,3q11.16,11,22.21,22.17a7.59,7.59,0,0,1,1.29,1.55,2,2,0,0,1-.52,2.79,4.25,4.25,0,0,1-2.68.48c-.61-.08-1.18-.79-1.69-1.3q-9.18-9.15-18.34-18.32c-.39-.39-.81-.76-1.39-1.32,0,.72-.08,1.21-.08,1.7,0,5.62,0,11.24,0,16.86a3.63,3.63,0,0,0,1.21,2.84q11.15,11.06,22.21,22.18a7.77,7.77,0,0,1,1.23,1.4,2.28,2.28,0,0,1-.39,3,2.19,2.19,0,0,1-2.84.46,8.24,8.24,0,0,1-1.56-1.28q-9.18-9.15-18.33-18.33a13.77,13.77,0,0,1-1-1.36l-.39.23c0,.43-.09.87-.09,1.3,0,5.78,0,11.56,0,17.33a3.61,3.61,0,0,0,.94,2.27c7.47,7.55,15,15,22.49,22.56a7.06,7.06,0,0,1,1.2,1.42,2.23,2.23,0,0,1-.41,2.86,2.19,2.19,0,0,1-2.84.5,7.89,7.89,0,0,1-1.56-1.27q-9.18-9.15-18.33-18.33a15.37,15.37,0,0,1-1.11-1.31l-.42.14v17.83c0,2.3-.92,3.24-3.19,3.26-3,0-5.93,0-8.9,0a5.09,5.09,0,0,1-1.81-.37Q81.88,138.72,55.22,127.8c-2.53-1-2.75-1.35-2.75-4,0-10.41,0-20.82,0-31.22A3.12,3.12,0,0,0,51.41,90c-1-.86-1.87-1.81-2.77-2.75-1.33-1.37-1.5-2.74-.51-3.86s2.23-1.08,3.75,0A5.73,5.73,0,0,0,52.47,83.62Zm15.38,22.64-.38.26c0,2.71.07,5.41,0,8.11a2.05,2.05,0,0,0,1.47,2.31c9,3.87,18,7.83,27,11.75.46.2.93.36,1.49.58V20.75a6.55,6.55,0,0,0-.65.17c-9.47,4.13-18.94,8.25-28.39,12.43a1.84,1.84,0,0,0-.83,1.37c-.09,2.24.08,4.49-.08,6.71a5,5,0,0,0,1.79,4.33c2.56,2.36,5,4.89,7.42,7.37.89.91,1.26,2.1.41,3.08a3.72,3.72,0,0,1-2.46,1.17c-.68,0-1.47-.69-2-1.25-1.62-1.56-3.16-3.21-4.9-5a5.79,5.79,0,0,0-.16.8c0,6.19,0,12.38,0,18.57a2.75,2.75,0,0,0,.79,1.71c2.72,2.8,5.52,5.52,8.25,8.31a2.47,2.47,0,0,1,.14,3.73c-1,1-2.34,1-3.63-.12-.39-.33-.75-.72-1.11-1.09l-4.48-4.47c0,6.57,0,12.7,0,18.83A3.2,3.2,0,0,0,68.51,100c2.7,2.6,5.34,5.26,8,7.93,1.58,1.62,1.24,3.89-.75,4.32a3.83,3.83,0,0,1-2.87-.9C71.06,109.79,69.5,108,67.85,106.26ZM62.47,39c0-2.41.05-4.37,0-6.32a3,3,0,0,1,2-3.16C75.73,24.59,87,19.64,98.29,14.74c2.55-1.11,4.16,0,4.16,2.78q0,57.54,0,115.07c0,2.62-1.63,3.75-4,2.72q-17-7.4-34-14.83a3,3,0,0,1-2-3.14c0-5,0-10,0-15,0-.46.08-1.07-.17-1.34-1.47-1.61-3-3.14-4.82-5,0,9.06,0,17.64,0,26.23,0,1,.59,1.19,1.27,1.47L106,143.1c.41.16.85.27,1.36.43V6.31L57.48,26.72c0,2.22,0,4.4,0,6.58a1.3,1.3,0,0,0,.24.86C59.18,35.68,60.68,37.16,62.47,39Zm50.07,105.84h4.79V5.16h-4.79ZM57.83,41.36l-.35.17c0,6.44,0,12.87,0,19.31a1.28,1.28,0,0,0,.27.84c1.44,1.52,2.92,3,4.7,4.83,0-7,0-13.41,0-19.84a1.72,1.72,0,0,0-.5-1.06C60.6,44.17,59.21,42.77,57.83,41.36Zm-.18,27.39a3.59,3.59,0,0,0-.17.64c0,6.24,0,12.48,0,18.72a1.59,1.59,0,0,0,.24,1c1.45,1.53,3,3,4.55,4.61a3.32,3.32,0,0,0,.18-.65c0-6.24,0-12.48,0-18.72a1.57,1.57,0,0,0-.26-1C60.74,71.83,59.24,70.35,57.65,68.75Z"/><path fill="#0085E1" d="M30.21,8.37C31,7,31.72,5.71,32.5,4.42c1-1.61,2.31-2.11,3.63-1.4s1.68,2.21.76,3.9c-.73,1.32-1.49,2.62-2.28,4l1.89,2c1.33-.75,2.67-1.53,4-2.27,1.69-.94,3.18-.67,3.93.69S44.66,14,43.09,15c-1.28.78-2.59,1.53-3.88,2.3,0,0-.05.09-.11.21L39.84,20c1.49,0,3,0,4.57,0,2,0,3.09,1,3.05,2.55S46.26,25,44.3,25.06c-1.4,0-2.81,0-4.21,0a1.25,1.25,0,0,0-.27.07L39,27.68c1.34.79,2.68,1.56,4,2.35,1.68,1,2.17,2.38,1.39,3.74s-2.23,1.58-3.93.62c-1.31-.73-2.61-1.49-4-2.27l-1.81,2.14c.65,1.14,1.44,2.52,2.21,3.91.9,1.64.65,3-.68,3.8s-2.73.31-3.67-1.24c-.8-1.33-1.56-2.69-2.4-4.15l-2.69.8c0,1.55,0,3.15,0,4.75S26.48,45,25.05,45s-2.52-1.1-2.56-2.9c0-.78,0-1.56,0-2.34V37.4l-2.67-.83-2.2,3.75c-1.13,1.93-2.48,2.5-3.9,1.65s-1.58-2.25-.46-4.22l2.07-3.6a1.35,1.35,0,0,0-.19-.34c-1.77-1.67-1.77-1.67-3.91-.43-.81.46-1.61,1-2.45,1.36a2.48,2.48,0,0,1-3.25-1,2.41,2.41,0,0,1,.73-3.31c1.47-1,3-1.81,4.62-2.76l-.73-2.65c-1.56,0-3.11,0-4.66,0-1.86,0-3-1-3-2.5s1-2.46,2.9-2.53c.72,0,1.45,0,2.18,0,2.65,0,2.65,0,3.23-2.73-1.32-.76-2.67-1.52-4-2.33-1.53-.93-2-2.38-1.31-3.66s2.23-1.58,3.83-.72c.68.36,1.35.77,2,1.16l2,1.11,2-2c-.7-1.23-1.49-2.56-2.23-3.92-.91-1.67-.66-3,.66-3.82s2.7-.34,3.67,1.24c.81,1.33,1.56,2.69,2.31,4,2.79-.42,2.79-.42,2.79-3,0-.94,0-1.87,0-2.81A2.39,2.39,0,0,1,25,.07a2.43,2.43,0,0,1,2.49,2.46c.05.93,0,1.87,0,2.81C27.49,7.81,27.49,7.81,30.21,8.37Zm-5.41,24A9.94,9.94,0,0,0,35,22.57a10,10,0,0,0-20-.2A10,10,0,0,0,24.8,32.4Z"/><path fill="#0085E1" d="M91.57,70c.11,0,.58,0,1,0a2.32,2.32,0,0,1,2.31,2.3,2.19,2.19,0,0,1-2,2.54c-1.31.1-1.58.89-1.94,1.8-1.15,2.89-2.29,5.78-3.46,8.66-.77,1.88-2,2.56-3.45,2s-2-2-1.25-3.78c1.42-3.62,2.89-7.22,4.33-10.83C88.15,70.2,88.49,70,91.57,70Z"/></svg>
