<svg xmlns="http://www.w3.org/2000/svg" xmlns:xlink="http://www.w3.org/1999/xlink" viewBox="0 0 730.84 703.32"><defs><style>.cls-1{fill:url(#Безымянный_градиент);}.cls-2{fill:url(#Безымянный_градиент-2);}.cls-3{fill:#e50201;}.cls-3,.cls-4{fill-rule:evenodd;}.cls-4{fill:#fff;}</style><radialGradient id="Безымянный_градиент" cx="168.09" cy="330.56" r="168.33" gradientUnits="userSpaceOnUse"><stop offset="0" stop-color="red"/><stop offset="1" stop-color="#f60"/></radialGradient><radialGradient id="Безымянный_градиент-2" cx="382.34" cy="330.56" r="332.47" xlink:href="#Безымянный_градиент"/></defs><g id="Слой_2" data-name="Слой 2"><g id="Слой_1-2" data-name="Слой 1"><g id="_лой_1" data-name=" —лой_1"><g id="_105553231568864" data-name=" 105553231568864"><path class="cls-1" d="M665.42,677.81h-581V278a12.79,12.79,0,0,0-12.76-12.76l-21,0L361.23,28.76,679.5,265.16h-15a12.79,12.79,0,0,0-12.76,12.76V418.29a13,13,0,0,0,12.1,13.11,12.77,12.77,0,0,0,13.41-12.73v-128h40.36a13.1,13.1,0,0,0,12.64-9.11,12.56,12.56,0,0,0-4.61-13.89L368.74,2.55a12.62,12.62,0,0,0-15.34.1L5.05,267.86A12.58,12.58,0,0,0,.58,281.74a13.11,13.11,0,0,0,12.63,9l45.69,0h0V690.56a12.8,12.8,0,0,0,12.77,12.76H665.42a12.79,12.79,0,0,0,0-25.51Z"/><path class="cls-2" d="M589.9,418.67a12.76,12.76,0,0,0,25.51,0V264.23a12.42,12.42,0,0,0-5.76-10.66L368.15,95.13a12.55,12.55,0,0,0-14.34.23l-225,158.25A12.42,12.42,0,0,0,123.4,264V648.76a12.79,12.79,0,0,0,12.76,12.76H664.53a12.78,12.78,0,0,0,12.75-12.76v-23.2a12.76,12.76,0,1,0-25.51,0V636H148.91V270.67L361.4,121.21,589.9,271.12h0Z"/><path class="cls-3" d="M482.47,575.42l-32.18,19.8c-6.16,2.85-7.49,2.49-11.13,3.92l94.42,1.52.32-70.74c-.08-9.28.18-3.36-2.44-5.06.34,4-19.94,46.07-23,53.79C504.12,575.59,489,571.19,482.47,575.42Z"/><path class="cls-3" d="M504.54,508.16c2.74-5.08,3.63-7.87,8.58-10.32a26.07,26.07,0,0,1,15.22-1.8c1.67.29,4.38.87,5.55,1.2v-3l0-49.29-65.2-.06c-3,.06-3.5.08-3.61.1v1.95c8.72-.19,20.15,8.25,24.52,12.45,5.33,5.13,10.24,14.3,13,23.77,4.92,16.78.67,16.58-11.56,37.42-4.35,7.41-8.39,14.87-13.4,21.83-2.84-6.15-.75-33.22-28.38-48.71-21.65-12.14-40.05-8.16-61.65.16,2.29-9,45.74-44.93,58.83-48.9l-71-.1-.44,68C381.18,507,383.54,504,392,499c5.75-3.35,13.5-6.38,24.79-6.57,15.83-.28,29.07,6.1,37.4,14.24,22.23,21.71,22.47,53.87,1.14,71.91-24.26,20.51-56.46,11-70-11-17-27.49,1.65-59.2,29.63-61a39.12,39.12,0,0,1,34.94,16.4c8.12,11.64,9.66,27.65,1.18,39.39-18.06,25-59.67,12.58-57.68-19.33.87-13.88,13.31-24.79,28.86-22.15,11.32,1.93,24.91,14.93,19.12,29.73-5.46,13.95-25.13,14.48-31.54,2.47-7.9-14.81,7-23.08,15-16,1.48,1.31,5.47,6.41,1.52,9.69-4.26,3.22-3.92-3.05-6.32-5.65l-5.58.43c-4.31,20.63,29.82,17.15,20.2-4.3-6.14-13.7-28.5-13.14-33.91.75-6.2,15.95,8.48,30.39,22,31.45,36,2.81,36.82-50.38,1-56.2-17.4-2.83-31.11,7.56-35.88,18.77-12.9,30.31,21,61.3,51.86,48.84C488.8,561,459.46,488,407.49,499.76c-13.4,3-27.42,13.87-31.66,24.18-2,4.86-.87,19.7-.88,26.08,0,12.6-1.44,14.16,4.61,23.32,20.77,31.48,68.09,32.54,89.77,1.46,3-4.32,8.18-13.27,12.83-22,7.76-14.6,14.52-30,22.38-44.63Z"/><path class="cls-3" d="M375,598.34l39.88,0c-10.6-4.36-21.26-5.86-31.43-16.34-2.1-2.16-6.32-7-8.31-8.54L375,598.34Z"/><polygon class="cls-3" points="195.89 270.06 353.54 270.06 353.54 426.17 195.89 426.17 195.89 270.06"/><path class="cls-4" d="M312.64,412.62c6.63-7,15.53-14.52,18.39-24.31h9l-.44,10.6,2.24-.39c-5.59,7.13-11.71,10.19-19.46,14.1Zm9.93-24.31c-4.14,12.7-9.42,15.14-17.4,24.31h-6.42c5.19-7.48,10.85-15.31,13.38-24.31Zm-21,0c-3.1,8.72-6.66,17.16-12.36,24.31H287c4.75-8.42,8.26-14.6,10.09-24.31Zm40.61,8,4.92-.09.75-123.86-1.44,0-4.23,123.91Zm-70-14.61,6.77-12c-4.6,4.6-8.22,8.69-13.74,12Zm-13.9,0c6.2-5.86,14.91-13.29,17.09-22H265c-2.18,8.51-7.24,14.9-12.14,22Zm-1.6-22c-3.24,8.77-6.11,16.6-14.88,20.82,6.11-7,7.88-12,10.15-20.82Zm-22.43-25.31c-2.41,7.21-6.87,14.56-13.81,18.18,2.88-4.89,8.05-12.43,8.2-18.18Zm5.84.27,7.61-.1L233,352.78h-.07l-4.13,0C233.9,348,238.46,341.51,240.07,334.64Zm9.34-23.39c12.45-3.92,21.43-9.22,23.15-21.88,1.63-12,3.49-13.59,13.22-20.05l-3.74.27c-8.34,6.05-13.89,12.46-15.52,22.11-1.68,10-6.82,13.24-17.11,19.55Zm27.07-24.38c-.64-8.52,7.17-14.18,17.18-17.41h-6.61C280.64,273.54,272.22,278.5,276.48,286.87Zm.86,46.08c10.48-8.59,15.76-13.87,19.31-24.84,4-12.43-.4-17.13,4.9-26.61,2.87-5.14,6.19-8.49,10.62-12.18l-4.65.28a103.84,103.84,0,0,0-8.88,11.6c-6.83,11.1-3.39,14.25-6.91,26.53-2.71,9.43-8.64,17-14.39,25.22ZM317,269.37l-3.51.14c-9.53,8-15,15.7-10.44,28.94C302,285,306.91,277.6,317,269.37Zm13.95-.09,5.29.22c-8.29,12.32-13.41,24.09-14.21,38.91q-.24,4.32-.47,8.63c-1,27.22-4.47,32.76-20.42,54.7,9.28-21,11.66-28.47,15.13-51.23l1.47-11.86c1.71-13.87,7.32-26.75,13.21-39.37Zm6.74.18h3.42c-9.79,13.52-13.77,21.9-14.22,38.74-2.75-18.83.85-23.19,10.8-38.74Zm-63.86.18-69.92,62.08q0,11.11,0,22.24h27.4l-3.47,3.65q.09,12.58.19,25.16l43.2.18c-1.06,1.19-2.4,2.46-3.46,3.65v27.21c24.13-.12,49.07.08,73.2-.05v-9.28l5.3.35,3.46-2.73q-.31-65.69-.64-131.36h-2.91l.09-1.83-4.38.64q-5.1,58.79-10.22,117.57H285q20.44-58.85,40.88-117.67l-6.66.09q-18.76,44.31-37.55,88.61H241.73q30.89-44.36,61.76-88.7l-7-.27-48.68,64H216.37l63.79-63.72-6.38.18Z"/><polygon class="cls-3" points="195.89 441.71 353.54 441.71 353.54 597.83 195.89 597.83 195.89 441.71"/><path class="cls-4" d="M208,487.25v.45a1.66,1.66,0,0,1,.36.38l15,26.78a44.47,44.47,0,0,0,5-1.29c1.75-.49,3.34-.88,5.05-1.37l15.29-4.1c3.87-.94,1.7-.83,3.48-3.11a39,39,0,0,1,3.14-3.27,8.08,8.08,0,0,1,4-2.55l7.36-27.53-6.89-3.9c-3.13-1.82-19.75-11.29-20.77-11.48L226.77,468c.77.95,3.52,2.38,4.74,3.15l14.65,9.25A82,82,0,0,1,243,491.07c-.37.46-9.57,3.17-10.8,3.41l-10.69-17A26.44,26.44,0,0,1,220,475c-1,.55-2.19,2.19-3.06,3.05-1.08,1.06-1.88,1.95-2.92,3.05l-4.34,4.61c-.29.3-.47.47-.74.76a4.2,4.2,0,0,1-1,.82Zm67.25,22.88a12.15,12.15,0,0,1-2.09,2.33l-6.32,6.75c3.86,1.71,6.77,3.71,8.54,8.06a17.79,17.79,0,0,0,3.18-3c.73-.78,2.37-2.78,3.3-3.22.2-.8,16.93-17.76,19.22-20.11,1.32-1.36,5.32-5.94,6.5-6.63,1.4.81,2.66,2,4.91,2,2.59,0,2.5-1.65,5.6-.21,1.74.81,7.37,4.36,8.45,5.61-.5,1.12-1.47,1.19-1.95,2.92a3.87,3.87,0,0,0,4.46,4.9c2-.32,6.4-5.39,7.86-6.86l3.59-3.66c.43-.51.57-1,1-1.58v-1.92c-.56-.79-.51-1.26-1.39-2-3.19-2.77-6.33,1.32-7,1.68-.37-1.06-1.62-2.43-2.28-3.67-1.84-3.47,1.55-3.09-5.58-13a31.28,31.28,0,0,0-5.82-6.55l-10.06-8.27c-6.29-4.44-14-8.55-22-9-3.11-.17-8.56.39-10.42,2,.48,1.21,2.59,1.16,5.26,1.75a41.51,41.51,0,0,1,5.57,1.69c6.17,2.28,14.05,7.86,13.12,15.27-.49,3.92-3.08,4.62-2.83,7.72.11,1.42.77,1.61.94,2.59-3,3.41-5.79,6-8.76,9.06-1.06,1.11-1.95,2.08-3,3.19-.26.28-11.39,12.07-11.94,12.2Zm-12.87,11.19a14.2,14.2,0,0,0-2.46,1.56L246.77,534.5c-.83.77-1.3,1.14-2.11,1.94l-13.21,11.75c-1.63,1.42-2.95,2.52-4.3,3.81-3.25,3.11-7.53,6.7-11.06,9.82-2.14,1.88-5,4.08-5.68,6.48-1.76,5.78,2.38,8.79,4.71,11.1,2.94,2.92,4.57,5.82,11.19,5.42,1.93-.77,2.29-.54,3.74-2L241.51,570c.43-.52.88-1,1.41-1.56s.74-.93,1.51-1.71l28.7-32.19c1.52-4.62.38-6.77-2-9.66a9.15,9.15,0,0,0-8.8-3.53Zm55.1,41.56a5.27,5.27,0,0,1,6.68,3.67c2.12,7-8.48,9.81-10.45,3.21-.91-3,.52-5.79,3.77-6.88ZM284.1,521.51a52.55,52.55,0,0,1-4.69,5.12L277.07,529a2.71,2.71,0,0,0-.94,1.55,16,16,0,0,1-.91,4.85c.89,1.39,8.93,9.53,11.09,12.06,3.79,4.43,12.52,13.54,16.93,18.27l14.08,15.15c1.4.84,3.65-.47,4.66-1,3.7-1.91,9.76-7.84,10.87-12.36.52-2.14-.83-2.76-1.9-3.71l-12.18-11.28c-4.59-4-10.57-9.87-15.27-14.16-.51-.47-5.72-5.14-5.91-5.66-1-.63-5-4.59-6.44-5.87-1.12-1-1.95-1.68-3.13-2.84-1-1-2-1.73-3.07-2.85C284.29,521.36,284.61,521.42,284.1,521.51Zm-22.55-2c1.15-1.17,1.26.48,3.28-1.67l6-6.2c.28-.28.38-.42.62-.65.58-.56.25-.31.83-.59a1.38,1.38,0,0,1,.12-.39s.1-.2.17-.38L268,505.4c-.92-.86-1.48-1.36-2.33-2.15a11.75,11.75,0,0,0-2.47-2.1c-1.77,2.22-1.57,4.48-6.91,8.56-1.09.84-2.07,1.1-3.24,1.87,1.87,1.77,5.57,6.23,7,7.56.8.76.34.37,1.51.34Z"/><polygon class="cls-3" points="375.44 270.06 533.09 270.06 533.09 426.17 375.44 426.17 375.44 270.06"/><path class="cls-4" d="M387.52,310.94v.45a1.84,1.84,0,0,1,.37.37l15,26.79a43.41,43.41,0,0,0,5-1.29c1.75-.49,3.35-.89,5.05-1.37l15.29-4.11c3.87-.94,1.7-.83,3.49-3.11a35.93,35.93,0,0,1,3.14-3.26,8,8,0,0,1,4-2.55l7.35-27.54-6.88-3.89c-3.14-1.82-19.75-11.29-20.78-11.49l-12.27,11.7c.77.95,3.51,2.38,4.73,3.15L425.71,304a81.38,81.38,0,0,1-3.16,10.71c-.37.47-9.56,3.18-10.8,3.42l-10.69-17a27.76,27.76,0,0,1-1.51-2.51c-1,.55-2.2,2.19-3.07,3.05-1.08,1.06-1.88,1.95-2.91,3.05l-4.35,4.61-.74.75a4.52,4.52,0,0,1-1,.83Zm67.25,22.88a12.4,12.4,0,0,1-2.08,2.33l-6.32,6.74c3.86,1.71,6.77,3.72,8.54,8.07a17.82,17.82,0,0,0,3.18-3c.72-.78,2.36-2.77,3.29-3.21.2-.8,16.93-17.76,19.23-20.12,1.31-1.35,5.31-5.93,6.5-6.63,1.39.82,2.65,2,4.91,2,2.59,0,2.49-1.65,5.59-.21,1.74.81,7.37,4.36,8.45,5.6-.5,1.13-1.47,1.2-1.95,2.93a3.87,3.87,0,0,0,4.46,4.9c2-.32,6.4-5.4,7.86-6.86l3.6-3.66c.43-.52.56-1,1-1.58v-1.92c-.55-.79-.5-1.26-1.38-2-3.2-2.77-6.34,1.32-7,1.68-.38-1.06-1.63-2.44-2.29-3.68-1.84-3.46,1.55-3.08-5.58-13a31.24,31.24,0,0,0-5.81-6.55l-10.07-8.27c-6.29-4.43-14-8.55-22-9-3.12-.17-8.57.38-10.43,1.94.49,1.22,2.6,1.17,5.26,1.76a41.22,41.22,0,0,1,5.58,1.69c6.16,2.27,14,7.85,13.11,15.27-.49,3.92-3.08,4.62-2.83,7.72.12,1.42.77,1.6.94,2.59-3,3.4-5.79,5.95-8.76,9.06-1.06,1.1-2,2.07-3,3.18-.27.28-11.39,12.07-12,12.21ZM441.9,345a13.62,13.62,0,0,0-2.46,1.56l-13.12,11.62c-.82.77-1.3,1.14-2.11,1.94L411,371.88c-1.63,1.41-3,2.52-4.3,3.81-3.26,3.11-7.53,6.7-11.07,9.82-2.14,1.88-4.95,4.08-5.68,6.47-1.76,5.79,2.38,8.79,4.71,11.11,2.94,2.92,4.58,5.82,11.19,5.42,1.93-.77,2.3-.54,3.74-2l11.46-12.84c.43-.52.88-1,1.41-1.57s.75-.92,1.51-1.7l28.71-32.19c1.52-4.62.38-6.78-2-9.66A9.18,9.18,0,0,0,441.9,345ZM497,386.57a5.28,5.28,0,0,1,6.68,3.67c2.12,6.95-8.48,9.81-10.46,3.21-.91-3,.52-5.79,3.78-6.88Zm-33.35-41.38a51.5,51.5,0,0,1-4.69,5.13l-2.35,2.34a2.82,2.82,0,0,0-.94,1.54,16,16,0,0,1-.91,4.85c.89,1.39,8.94,9.54,11.1,12.07,3.79,4.43,12.52,13.54,16.92,18.27l14.08,15.15c1.4.83,3.66-.47,4.67-1,3.69-1.91,9.75-7.84,10.86-12.37.53-2.14-.83-2.75-1.9-3.71l-12.18-11.28c-4.58-4-10.57-9.86-15.27-14.16-.51-.46-5.72-5.13-5.9-5.66-1-.62-5.06-4.58-6.45-5.86-1.12-1-1.95-1.68-3.13-2.84-1-1-2-1.73-3.07-2.86C463.84,345,464.17,345.1,463.66,345.19Zm-22.55-2c1.15-1.18,1.25.48,3.27-1.67l6-6.2c.29-.28.38-.42.62-.65.58-.56.25-.31.83-.59.08-.33,0,0,.13-.39,0-.05.09-.2.16-.38-1.5-1.41-2.92-2.71-4.52-4.21-.92-.85-1.49-1.35-2.33-2.14a12.16,12.16,0,0,0-2.48-2.11c-1.76,2.23-1.57,4.49-6.9,8.57-1.1.83-2.08,1.09-3.24,1.86,1.86,1.78,5.57,6.23,7,7.57.81.76.34.37,1.52.34Z"/></g></g></g></g></svg>