<svg width="50" height="50" viewBox="0 0 50 50" fill="none" xmlns="http://www.w3.org/2000/svg">
<path d="M43.9778 9H7.02218C5.35593 9 4 10.3559 4 12.0222V37.5112C4 39.1774 5.35593 40.5333 7.02218 40.5333H43.9778C45.6441 40.5333 47 39.1774 47 37.5112V12.0222C47 10.3559 45.6441 9 43.9778 9ZM45.5667 37.5112C45.5667 38.3869 44.8543 39.1 43.9778 39.1H7.02218C6.1457 39.1 5.43333 38.3869 5.43333 37.5112V12.0222C5.43333 11.1464 6.1457 10.4333 7.02218 10.4333H43.9778C44.8543 10.4333 45.5667 11.1464 45.5667 12.0222V37.5112Z" fill="#1B91E3"/>
<path d="M15.4667 29.7832H9.01672C8.6204 29.7832 8.30005 30.1043 8.30005 30.4999C8.30005 30.8955 8.6204 31.2165 9.01672 31.2165H15.4667C15.863 31.2165 16.1834 30.8955 16.1834 30.4999C16.1834 30.1043 15.863 29.7832 15.4667 29.7832Z" fill="#1B91E3"/>
<path d="M24.7831 29.7832H18.3331C17.9368 29.7832 17.6165 30.1043 17.6165 30.4999C17.6165 30.8955 17.9368 31.2165 18.3331 31.2165H24.7831C25.1794 31.2165 25.4998 30.8955 25.4998 30.4999C25.4998 30.1043 25.1794 29.7832 24.7831 29.7832Z" fill="#1B91E3"/>
<path d="M9.73338 33.3662H9.01672C8.6204 33.3662 8.30005 33.6873 8.30005 34.0829C8.30005 34.4785 8.6204 34.7995 9.01672 34.7995H9.73338C10.1297 34.7995 10.45 34.4785 10.45 34.0829C10.45 33.6873 10.1297 33.3662 9.73338 33.3662Z" fill="#1B91E3"/>
<path d="M14.0333 33.3662H12.6C12.2037 33.3662 11.8833 33.6873 11.8833 34.0829C11.8833 34.4785 12.2037 34.7995 12.6 34.7995H14.0333C14.4296 34.7995 14.75 34.4785 14.75 34.0829C14.75 33.6873 14.4296 33.3662 14.0333 33.3662Z" fill="#1B91E3"/>
<path d="M17.6167 33.3662H16.9C16.5037 33.3662 16.1833 33.6873 16.1833 34.0829C16.1833 34.4785 16.5037 34.7995 16.9 34.7995H17.6167C18.013 34.7995 18.3333 34.4785 18.3333 34.0829C18.3333 33.6873 18.013 33.3662 17.6167 33.3662Z" fill="#1B91E3"/>
<path d="M21.9166 33.3662H20.4833C20.087 33.3662 19.7666 33.6873 19.7666 34.0829C19.7666 34.4785 20.087 34.7995 20.4833 34.7995H21.9166C22.3129 34.7995 22.6333 34.4785 22.6333 34.0829C22.6333 33.6873 22.3129 33.3662 21.9166 33.3662Z" fill="#1B91E3"/>
<path d="M24.2745 33.5739C24.1448 33.71 24.0667 33.8964 24.0667 34.0827C24.0667 34.269 24.1448 34.4554 24.2745 34.5915C24.4099 34.7205 24.597 34.7994 24.7833 34.7994C24.9697 34.7994 25.156 34.7205 25.2921 34.5915C25.4211 34.4554 25.5 34.269 25.5 34.0827C25.5 33.8964 25.4211 33.71 25.2921 33.5739C25.0198 33.3087 24.5318 33.3087 24.2745 33.5739Z" fill="#1B91E3"/>
<path d="M38.4 26.917C37.4856 26.917 36.6306 27.1671 35.8917 27.5957C35.1528 27.1671 34.2978 26.917 33.3834 26.917C30.6177 26.917 28.3667 29.1673 28.3667 31.9337C28.3667 34.7 30.6177 36.9503 33.3834 36.9503C34.2978 36.9503 35.1528 36.7002 35.8917 36.2716C36.6306 36.7002 37.4856 36.9503 38.4 36.9503C41.1656 36.9503 43.4167 34.7 43.4167 31.9337C43.4167 29.1673 41.1656 26.917 38.4 26.917ZM36.9667 31.9337C36.9667 32.9327 36.5539 33.8357 35.8917 34.4864C35.2295 33.8357 34.8167 32.9327 34.8167 31.9337C34.8167 30.9346 35.2295 30.0316 35.8917 29.3809C36.5539 30.0316 36.9667 30.9346 36.9667 31.9337ZM29.8 31.9337C29.8 29.9578 31.4075 28.3503 33.3834 28.3503C33.8356 28.3503 34.2649 28.4435 34.664 28.5976C33.8707 29.4848 33.3834 30.6523 33.3834 31.9337C33.3834 33.2151 33.8707 34.3825 34.664 35.2697C34.2649 35.4238 33.8356 35.517 33.3834 35.517C31.4075 35.517 29.8 33.9095 29.8 31.9337ZM38.4 35.517C37.9478 35.517 37.5185 35.4238 37.1193 35.2697C37.9127 34.3825 38.4 33.2151 38.4 31.9337C38.4 30.6523 37.9127 29.4848 37.1193 28.5976C37.5185 28.4435 37.9478 28.3503 38.4 28.3503C40.3759 28.3503 41.9834 29.9578 41.9834 31.9337C41.9834 33.9095 40.3759 35.517 38.4 35.517Z" fill="#1B91E3"/>
<path d="M9.91613 24.7667H14.2161H15.284H19.584C20.4748 24.7667 21.2 24.0415 21.2 23.1506V17.4173V16.3495C21.2 15.4587 20.4748 14.7334 19.584 14.7334H14.2161H9.91613C9.02532 14.7334 8.30005 15.4587 8.30005 16.3495V23.1506C8.30005 24.0415 9.02532 24.7667 9.91613 24.7667ZM12.6 20.4667H9.73338V19.0334H12.6V20.4667ZM9.73338 23.1506V21.9001H12.6V23.1506C12.6 23.213 12.6115 23.2725 12.6187 23.3334H9.91613C9.81508 23.3334 9.73338 23.2517 9.73338 23.1506ZM19.7667 20.4667H16.9V19.2161C16.9 19.1151 16.9817 19.0334 17.0828 19.0334H19.584C19.6463 19.0334 19.7058 19.0219 19.7667 19.0148V20.4667ZM19.584 23.3334H16.8814C16.8886 23.2725 16.9 23.213 16.9 23.1506V21.9001H19.7667V23.1506C19.7667 23.2517 19.685 23.3334 19.584 23.3334ZM19.584 16.1667C19.685 16.1667 19.7667 16.2484 19.7667 16.3495V17.4173C19.7667 17.5184 19.685 17.6001 19.584 17.6001H17.0828C16.192 17.6001 15.4667 18.3253 15.4667 19.2161V23.1506C15.4667 23.2517 15.385 23.3334 15.284 23.3334H14.2161C14.1151 23.3334 14.0334 23.2517 14.0334 23.1506V16.3495C14.0334 16.2484 14.1151 16.1667 14.2161 16.1667H19.584ZM9.91613 16.1667H12.6187C12.6115 16.2276 12.6 16.2871 12.6 16.3495V17.6001H9.73338V16.3495C9.73338 16.2484 9.81508 16.1667 9.91613 16.1667Z" fill="#1B91E3"/>
</svg>
