<svg width="21" height="21" viewBox="0 0 21 21" fill="none" xmlns="http://www.w3.org/2000/svg">
<path fill-rule="evenodd" clip-rule="evenodd" d="M0.615076 0.615076C1.43518 -0.205025 2.76482 -0.205025 3.58492 0.615076L10.5 7.53015L17.4151 0.615076C18.2352 -0.205025 19.5648 -0.205025 20.3849 0.615076C21.205 1.43518 21.205 2.76482 20.3849 3.58492L13.4698 10.5L20.3849 17.4151C21.205 18.2352 21.205 19.5648 20.3849 20.3849C19.5648 21.205 18.2352 21.205 17.4151 20.3849L10.5 13.4698L3.58492 20.3849C2.76482 21.205 1.43518 21.205 0.615076 20.3849C-0.205025 19.5648 -0.205025 18.2352 0.615076 17.4151L7.53015 10.5L0.615076 3.58492C-0.205025 2.76482 -0.205025 1.43518 0.615076 0.615076Z" fill="#333333"/>
</svg>
