<svg width="50" height="50" viewBox="0 0 50 50" fill="none" xmlns="http://www.w3.org/2000/svg">
<path fill-rule="evenodd" clip-rule="evenodd" d="M24.6954 8.7509C21.2565 8.7509 17.9584 10.1344 15.5267 12.5971C13.095 15.0598 11.7289 18.3999 11.7289 21.8826C11.7289 28.5721 15.0277 33.6153 18.3912 37.0217C20.0706 38.7225 21.7523 40.0001 23.0138 40.8518C23.6439 41.2772 24.1671 41.595 24.53 41.805C24.5896 41.8395 24.6448 41.871 24.6954 41.8996C24.7461 41.871 24.8013 41.8395 24.8608 41.805C25.2238 41.595 25.747 41.2772 26.377 40.8518C27.6385 40.0001 29.3203 38.7225 30.9997 37.0217C34.3632 33.6153 37.662 28.5721 37.662 21.8826C37.662 18.3999 36.2959 15.0598 33.8642 12.5971C31.4325 10.1344 28.1344 8.7509 24.6954 8.7509ZM24.6954 42.8934C24.3088 43.6764 24.3085 43.6762 24.3081 43.676L24.307 43.6755L24.3039 43.6739C24.3014 43.6726 24.2981 43.6709 24.2939 43.6688C24.2856 43.6645 24.2741 43.6585 24.2593 43.6508C24.2297 43.6354 24.1875 43.613 24.1333 43.5838C24.025 43.5253 23.869 43.4391 23.6722 43.3252C23.2788 43.0975 22.7215 42.7587 22.0548 42.3086C20.723 41.4095 18.947 40.0607 17.1687 38.2597C13.6167 34.6625 10 29.2003 10 21.8826C10 17.9355 11.5483 14.1501 14.3042 11.359C17.0601 8.56799 20.798 7 24.6954 7C28.5929 7 32.3307 8.56799 35.0867 11.359C37.8426 14.1501 39.3909 17.9355 39.3909 21.8826C39.3909 29.2003 35.7741 34.6625 32.2222 38.2597C30.4438 40.0607 28.6678 41.4095 27.336 42.3086C26.6694 42.7587 26.1121 43.0975 25.7186 43.3252C25.5218 43.4391 25.3659 43.5253 25.2576 43.5838C25.2034 43.613 25.1611 43.6354 25.1316 43.6508C25.1168 43.6585 25.1052 43.6645 25.0969 43.6688C25.0928 43.6709 25.0895 43.6726 25.087 43.6739L25.0839 43.6755L25.0828 43.676C25.0824 43.6762 25.082 43.6764 24.6954 42.8934ZM24.6954 42.8934L25.082 43.6764L24.6954 43.8722L24.3088 43.6764L24.6954 42.8934Z" fill="#0085E1"/>
<path fill-rule="evenodd" clip-rule="evenodd" d="M24.6954 17.3056C22.2711 17.3056 20.3059 19.2709 20.3059 21.6952C20.3059 24.1194 22.2711 26.0847 24.6954 26.0847C27.1197 26.0847 29.085 24.1194 29.085 21.6952C29.085 19.2709 27.1197 17.3056 24.6954 17.3056ZM18.55 21.6952C18.55 18.3012 21.3014 15.5498 24.6954 15.5498C28.0894 15.5498 30.8408 18.3012 30.8408 21.6952C30.8408 25.0892 28.0894 27.8405 24.6954 27.8405C21.3014 27.8405 18.55 25.0892 18.55 21.6952Z" fill="#0085E1"/>
</svg>
