<svg width="30" height="37" viewBox="0 0 30 37" fill="none" xmlns="http://www.w3.org/2000/svg">
<path fill-rule="evenodd" clip-rule="evenodd" d="M14.6954 1.7509C11.2565 1.7509 7.95839 3.13441 5.52669 5.59709C3.09499 8.05977 1.72887 11.3999 1.72887 14.8826C1.72887 21.5721 5.02766 26.6153 8.39118 30.0217C10.0706 31.7225 11.7523 33.0001 13.0138 33.8518C13.6439 34.2772 14.1671 34.595 14.53 34.805C14.5896 34.8395 14.6448 34.871 14.6954 34.8996C14.7461 34.871 14.8013 34.8395 14.8608 34.805C15.2238 34.595 15.747 34.2772 16.377 33.8518C17.6385 33.0001 19.3203 31.7225 20.9997 30.0217C24.3632 26.6153 27.662 21.5721 27.662 14.8826C27.662 11.3999 26.2959 8.05977 23.8642 5.59709C21.4325 3.13441 18.1344 1.7509 14.6954 1.7509ZM14.6954 35.8934C14.3088 36.6764 14.3085 36.6762 14.3081 36.676L14.307 36.6755L14.3039 36.6739C14.3014 36.6726 14.2981 36.6709 14.2939 36.6688C14.2856 36.6645 14.2741 36.6585 14.2593 36.6508C14.2298 36.6354 14.1875 36.613 14.1333 36.5838C14.025 36.5253 13.869 36.4391 13.6722 36.3252C13.2788 36.0975 12.7215 35.7587 12.0548 35.3086C10.723 34.4095 8.94701 33.0607 7.16868 31.2597C3.61672 27.6625 0 22.2003 0 14.8826C0 10.9355 1.54826 7.15005 4.30419 4.35902C7.06012 1.56799 10.798 0 14.6954 0C18.5929 0 22.3307 1.56799 25.0867 4.35902C27.8426 7.15005 29.3909 10.9355 29.3909 14.8826C29.3909 22.2003 25.7741 27.6625 22.2222 31.2597C20.4438 33.0607 18.6678 34.4095 17.336 35.3086C16.6694 35.7587 16.1121 36.0975 15.7186 36.3252C15.5218 36.4391 15.3659 36.5253 15.2576 36.5838C15.2034 36.613 15.1611 36.6354 15.1316 36.6508C15.1168 36.6585 15.1052 36.6645 15.0969 36.6688C15.0928 36.6709 15.0895 36.6726 15.087 36.6739L15.0839 36.6755L15.0828 36.676C15.0824 36.6762 15.082 36.6764 14.6954 35.8934ZM14.6954 35.8934L15.082 36.6764L14.6954 36.8722L14.3088 36.6764L14.6954 35.8934Z" fill="#0085E1"/>
<path fill-rule="evenodd" clip-rule="evenodd" d="M14.6954 10.3056C12.2711 10.3056 10.3059 12.2709 10.3059 14.6952C10.3059 17.1194 12.2711 19.0847 14.6954 19.0847C17.1197 19.0847 19.085 17.1194 19.085 14.6952C19.085 12.2709 17.1197 10.3056 14.6954 10.3056ZM8.55005 14.6952C8.55005 11.3012 11.3014 8.5498 14.6954 8.5498C18.0894 8.5498 20.8408 11.3012 20.8408 14.6952C20.8408 18.0892 18.0894 20.8405 14.6954 20.8405C11.3014 20.8405 8.55005 18.0892 8.55005 14.6952Z" fill="#0085E1"/>
</svg>
