<?xml version="1.0" encoding="utf-8"?>
<!-- Generator: Adobe Illustrator 21.1.0, SVG Export Plug-In . SVG Version: 6.00 Build 0)  -->
<svg version="1.1" id="Режим_изоляции"
	 xmlns="http://www.w3.org/2000/svg" xmlns:xlink="http://www.w3.org/1999/xlink" x="0px" y="0px" viewBox="0 0 7.9 18"
	 style="enable-background:new 0 0 7.9 18;" xml:space="preserve">
<style type="text/css">
	.st0{fill:#FFFFFF;}
</style>
<path class="st0" d="M7.9,17.1c0,0.3-0.2,0.6-0.6,0.6C6.6,17.8,5.6,18,5.1,18c-0.9,0-1.8,0-2.7-0.8C0.8,15.9,0.1,13.3,0,9l0,0
	c-0.1-4.2,0.5-6.8,2-8.2C2.9,0,3.8,0,4.7,0C5.3,0,6.4,0.1,7,0.2c0.3,0,0.6,0.3,0.6,0.6l0,0c0,1,0,2.9-0.2,4.4c0,0.3-0.3,0.6-0.7,0.6
	H4.1C2.9,5.8,2.7,7.6,2.8,9s0.3,3.2,1.5,3.2h2.6c0.4,0,0.7,0.2,0.7,0.6C7.8,14.1,7.9,16,7.9,17.1L7.9,17.1L7.9,17.1z"/>
</svg>
