<svg width="50" height="50" viewBox="0 0 50 50" fill="none" xmlns="http://www.w3.org/2000/svg">
<path fill-rule="evenodd" clip-rule="evenodd" d="M4 10.8644C4 10.387 4.38557 10 4.86118 10H44.4756C44.9513 10 45.3368 10.387 45.3368 10.8644V38.5264C45.3368 39.0038 44.9513 39.3909 44.4756 39.3909H4.86118C4.38557 39.3909 4 39.0038 4 38.5264V10.8644ZM5.72237 11.7289V37.662H43.6145V11.7289H5.72237Z" fill="#0085E1"/>
<path fill-rule="evenodd" clip-rule="evenodd" d="M4.13995 13.9923C4.39976 13.595 4.93333 13.483 5.33171 13.7421L24.6684 26.3189L44.0051 13.7421C44.4035 13.483 44.9371 13.595 45.1969 13.9923C45.4567 14.3896 45.3444 14.9218 44.946 15.1809L25.1388 28.0637C24.8529 28.2497 24.4839 28.2497 24.198 28.0637L4.39084 15.1809C3.99246 14.9218 3.88013 14.3896 4.13995 13.9923Z" fill="#0085E1"/>
<path fill-rule="evenodd" clip-rule="evenodd" d="M20.115 23.2241C20.4178 23.604 20.3564 24.1582 19.9779 24.4621L12.2525 30.6645C11.8739 30.9684 11.3216 30.9068 11.0188 30.527C10.716 30.1471 10.7773 29.5929 11.1558 29.289L18.8813 23.0866C19.2598 22.7827 19.8121 22.8443 20.115 23.2241Z" fill="#0085E1"/>
<path fill-rule="evenodd" clip-rule="evenodd" d="M29.4079 23.2241C29.7048 22.8442 30.2463 22.7827 30.6173 23.0867L38.1876 29.2887C38.5587 29.5927 38.6188 30.1471 38.3219 30.5269C38.025 30.9068 37.4835 30.9684 37.1125 30.6644L29.5421 24.4624C29.1711 24.1584 29.111 23.604 29.4079 23.2241Z" fill="#0085E1"/>
</svg>
