<svg width="50" height="50" viewBox="0 0 50 50" fill="none" xmlns="http://www.w3.org/2000/svg">
<path d="M27.4852 13.7551C27.4718 13.7539 27.4571 13.7539 27.4425 13.7539C26.9368 13.7539 26.5263 14.1643 26.5263 14.67C26.5263 15.1574 26.9074 15.5569 27.3887 15.585H27.3912C31.7069 15.8672 35.1003 19.4365 35.1003 23.7974C35.1003 24.0246 35.0905 24.2494 35.0734 24.4717L35.0759 24.4424C35.0759 24.9481 35.4863 25.3585 35.992 25.3585C36.4977 25.3585 36.9082 24.9481 36.9082 24.4424C36.9192 24.2677 36.9253 24.0637 36.9253 23.8572C36.9253 18.5069 32.7757 14.1252 27.5194 13.7563L27.4877 13.7551H27.4852ZM27.3948 9.00821C27.9433 9.03509 40.8293 9.84863 40.8293 24.4424C40.8293 24.9481 41.2398 25.3585 41.7455 25.3585C42.2512 25.3585 42.6616 24.9481 42.6616 24.4424C42.68 24.1516 42.6909 23.8133 42.6909 23.4712C42.6909 14.8484 36.0079 7.78545 27.5377 7.18201L27.4852 7.17957C27.4742 7.17957 27.462 7.17834 27.4498 7.17834C26.9575 7.17834 26.5556 7.56191 26.5251 8.04564V8.04808C26.5239 8.06152 26.5239 8.0774 26.5239 8.09328C26.5239 8.58312 26.9087 8.98378 27.3924 9.00821H27.3948ZM42.8766 33.9288C42.7435 33.1043 42.4686 32.3641 42.0777 31.702L42.0936 31.7313C41.9544 31.5041 41.7259 31.3441 41.4572 31.3001L41.4523 31.2989L30.4963 29.5594C30.4536 29.5521 30.4035 29.5484 30.3534 29.5484C30.1005 29.5484 29.8709 29.6498 29.7048 29.8147C28.879 30.6453 28.2462 31.6666 27.8773 32.8087L27.8627 32.8624C22.957 30.8591 19.1397 27.0418 17.184 22.2656L17.1376 22.1373C18.3322 21.7538 19.3534 21.1198 20.1829 20.294C20.349 20.1279 20.4516 19.8982 20.4516 19.6454C20.4516 19.5953 20.4479 19.5464 20.4394 19.4988L20.4406 19.5037L18.6999 8.54769C18.6559 8.27407 18.4959 8.04442 18.2724 7.9076L18.2687 7.90516C17.6518 7.53748 16.9323 7.26752 16.1628 7.14048L16.1273 7.13559C15.7426 7.05008 15.3004 7 14.8472 7C14.8166 7 14.7861 7 14.7556 7.00122H14.7604H14.7531C10.4814 7.03054 7.02565 10.4887 7 14.7592V14.7617C7.01832 30.3497 19.649 42.9817 35.2359 43H35.2383C39.5137 42.9719 42.9719 39.5137 43 35.242V35.2396C43 35.2151 43 35.1858 43 35.1565C43 34.7216 42.956 34.2978 42.8705 33.8885L42.8778 33.9288H42.8766ZM35.2371 41.1677C20.6605 41.1506 8.84941 29.3383 8.83231 14.7629C8.85552 11.4977 11.4977 8.85552 14.7617 8.83353H14.7641C14.7837 8.83353 14.8081 8.83353 14.8313 8.83353C15.1636 8.83353 15.4873 8.87018 15.8 8.93858L15.7707 8.93248C16.2177 9.00577 16.6196 9.12914 16.9959 9.29894L16.9653 9.28672L18.5558 19.3058C17.7886 19.9508 16.8407 20.4064 15.7988 20.5884L15.7633 20.5933C15.3297 20.6715 15.006 21.0453 15.006 21.496C15.006 21.6035 15.0243 21.7061 15.0585 21.8014L15.0561 21.7953C17.2206 27.9909 22.0127 32.7818 28.0606 34.9012L28.2084 34.9464C28.2975 34.9781 28.4002 34.9965 28.5077 34.9965C28.9572 34.9965 29.331 34.6728 29.4079 34.2452L29.4091 34.2391C29.596 33.1617 30.0517 32.2138 30.7052 31.4357L30.6979 31.4442L40.7157 33.0359C40.8782 33.395 41.0052 33.8128 41.0773 34.2501L41.081 34.2794C41.1371 34.5469 41.1701 34.8548 41.1701 35.1699C41.1701 35.1919 41.1701 35.2127 41.1701 35.2347V35.231C41.1506 38.4986 38.5084 41.1433 35.2432 41.1665H35.2408L35.2371 41.1677Z" fill="#0085E1"/>
</svg>
