<svg width="36" height="36" viewBox="0 0 36 36" fill="none" xmlns="http://www.w3.org/2000/svg">
<path d="M20.4852 6.75511C20.4718 6.75389 20.4571 6.75389 20.4425 6.75389C19.9368 6.75389 19.5263 7.16433 19.5263 7.67005C19.5263 8.15744 19.9074 8.55689 20.3887 8.58498H20.3912C24.7069 8.86716 28.1003 12.4365 28.1003 16.7974C28.1003 17.0246 28.0905 17.2494 28.0734 17.4717L28.0759 17.4424C28.0759 17.9481 28.4863 18.3585 28.992 18.3585C29.4977 18.3585 29.9082 17.9481 29.9082 17.4424C29.9192 17.2677 29.9253 17.0637 29.9253 16.8572C29.9253 11.5069 25.7757 7.12524 20.5194 6.75634L20.4877 6.75511H20.4852ZM20.3948 2.00821C20.9433 2.03509 33.8293 2.84863 33.8293 17.4424C33.8293 17.9481 34.2398 18.3585 34.7455 18.3585C35.2512 18.3585 35.6616 17.9481 35.6616 17.4424C35.68 17.1516 35.6909 16.8133 35.6909 16.4712C35.6909 7.84839 29.0079 0.78545 20.5377 0.182009L20.4852 0.179566C20.4742 0.179566 20.462 0.178345 20.4498 0.178345C19.9575 0.178345 19.5556 0.561908 19.5251 1.04564V1.04808C19.5239 1.06152 19.5239 1.0774 19.5239 1.09328C19.5239 1.58312 19.9087 1.98378 20.3924 2.00821H20.3948ZM35.8766 26.9288C35.7435 26.1043 35.4686 25.3641 35.0777 24.702L35.0936 24.7313C34.9544 24.5041 34.7259 24.3441 34.4572 24.3001L34.4523 24.2989L23.4963 22.5594C23.4536 22.5521 23.4035 22.5484 23.3534 22.5484C23.1005 22.5484 22.8709 22.6498 22.7048 22.8147C21.879 23.6453 21.2462 24.6666 20.8773 25.8087L20.8627 25.8624C15.957 23.8591 12.1397 20.0418 10.184 15.2656L10.1376 15.1373C11.3322 14.7538 12.3534 14.1198 13.1829 13.294C13.349 13.1279 13.4516 12.8982 13.4516 12.6454C13.4516 12.5953 13.4479 12.5464 13.4394 12.4988L13.4406 12.5037L11.6999 1.54769C11.6559 1.27407 11.4959 1.04442 11.2724 0.907604L11.2687 0.905161C10.6518 0.537477 9.93234 0.267517 9.16277 0.140477L9.12735 0.135591C8.74256 0.0500831 8.30036 0 7.84717 0C7.81663 0 7.78609 -8.85943e-08 7.75556 0.00122145H7.76044H7.75311C3.48139 0.0305384 0.0256523 3.48872 0 7.75922V7.76166C0.0183231 23.3497 12.649 35.9817 28.2359 36H28.2383C32.5137 35.9719 35.9719 32.5137 36 28.242V28.2396C36 28.2151 36 28.1858 36 28.1565C36 27.7216 35.956 27.2977 35.8705 26.8885L35.8778 26.9288H35.8766ZM28.2371 34.1677C13.6605 34.1506 1.84941 22.3383 1.83231 7.76289C1.85552 4.49771 4.49771 1.85552 7.76166 1.83353H7.76411C7.78365 1.83353 7.80808 1.83353 7.83129 1.83353C8.16355 1.83353 8.48726 1.87018 8.79997 1.93858L8.77065 1.93248C9.21774 2.00577 9.61962 2.12914 9.99586 2.29894L9.96532 2.28672L11.5558 12.3058C10.7886 12.9508 9.84072 13.4064 8.79875 13.5884L8.76333 13.5933C8.32968 13.6715 8.00597 14.0453 8.00597 14.496C8.00597 14.6035 8.02429 14.7061 8.0585 14.8014L8.05605 14.7953C10.2206 20.9909 15.0127 25.7818 21.0606 27.9012L21.2084 27.9464C21.2975 27.9781 21.4002 27.9965 21.5077 27.9965C21.9572 27.9965 22.331 27.6728 22.4079 27.2452L22.4091 27.2391C22.596 26.1617 23.0517 25.2138 23.7052 24.4357L23.6979 24.4442L33.7157 26.0359C33.8782 26.395 34.0052 26.8128 34.0773 27.2501L34.081 27.2794C34.1371 27.5469 34.1701 27.8548 34.1701 28.1699C34.1701 28.1919 34.1701 28.2127 34.1701 28.2347V28.231C34.1506 31.4986 31.5084 34.1433 28.2432 34.1665H28.2408L28.2371 34.1677Z" fill="#0085E1"/>
</svg>
