<svg id="Layer_1" data-name="Layer 1" xmlns="http://www.w3.org/2000/svg" viewBox="0 0 47.64 30.57">
<path fill="#0085E1" d="M47.64,30a1.08,1.08,0,0,1-1,.45H9A8,8,0,0,1,.8,22.22c0-.25,0-.49,0-.74,0-.53.27-.83.7-.82s.65.3.67.81a17.33,17.33,0,0,0,.09,1.91,6.59,6.59,0,0,0,6.16,5.69H29.35v-.5c0-4.3.06-8.6,0-12.9C29.23,9.81,26.55,5.46,21.18,3A12.87,12.87,0,0,0,9,3.68a13.25,13.25,0,0,0-6.14,7.56,13.78,13.78,0,0,0-.67,4.32v2.79c0,.57-.26.88-.7.87S.8,18.91.8,18.36a32.85,32.85,0,0,1,.25-5.61,14.7,14.7,0,0,1,3.31-7A14.57,14.57,0,0,1,12.54.83,14.46,14.46,0,0,1,23.36,2.58a1.14,1.14,0,0,0,1.39,0,3,3,0,0,1,2.68-.54A4,4,0,0,1,29,3a17.28,17.28,0,0,1,3.51,5.36.7.7,0,0,1-.29,1c-.37.17-.73,0-1-.45l-.83-1.75-1.61,1a15.07,15.07,0,0,1,1.87,7.77c1.41-.48,2-1.3,1.76-2.54-.12-.6-.2-1.2-.3-1.8a.67.67,0,0,1,.45-.84.57.57,0,0,1,.81.39,22.09,22.09,0,0,1,.4,3.33,2.6,2.6,0,0,1-1.39,2.14c-.48.3-1,.54-1.47.83a.47.47,0,0,0-.24.32c0,1.62,0,3.23,0,4.87h12.5c0-.28,0-.58,0-.88a8.1,8.1,0,0,1,.09-1.4,2.16,2.16,0,0,1,2-1.67,2.22,2.22,0,0,1,2.16,1.47l.13.33ZM37.41,24.07c0,.46,0,.87,0,1.28s-.25.84-.68.84-.68-.31-.69-.85V24.09H33.41c0,.86,0,1.68,0,2.5a.66.66,0,0,1-.68.71c-.38,0-.64-.26-.68-.71,0-.15,0-.3,0-.45V24.08h-1.3v5H43.19v-5H41.6v.8c0,.59,0,1.19,0,1.78a.68.68,0,1,1-1.36,0c0-.27,0-.55,0-.82V24.07Zm8.86,5V20.93a.28.28,0,0,0,0-.09.84.84,0,0,0-.82-.77.83.83,0,0,0-.83.8,2.77,2.77,0,0,0,0,.41q0,3.63,0,7.26v.52ZM29.74,6c-.54-.66-1-1.28-1.54-1.88a1.84,1.84,0,0,0-2.82-.24L28.19,7Z"/>
<path fill="#0085E1" d="M15.76,5.79A10.7,10.7,0,1,1,5.09,16.48,10.72,10.72,0,0,1,15.76,5.79Zm.06,1.38a9.32,9.32,0,1,0,9.23,9.52A9.32,9.32,0,0,0,15.82,7.17Z"/>
<path fill="#0085E1" d="M15.83,8.71A7.77,7.77,0,1,1,8,16.3,7.76,7.76,0,0,1,15.83,8.71Zm6.3,7.77a6.38,6.38,0,1,0-6.38,6.4A6.4,6.4,0,0,0,22.13,16.48Z"/>
</svg>
