<?xml version="1.0" encoding="utf-8"?>
<!-- Generator: Adobe Illustrator 26.2.1, SVG Export Plug-In . SVG Version: 6.00 Build 0)  -->
<svg version="1.1" id="Режим_изоляции"
	 xmlns="http://www.w3.org/2000/svg" xmlns:xlink="http://www.w3.org/1999/xlink" x="0px" y="0px" viewBox="0 0 1120 7"
	 style="enable-background:new 0 0 1120 7;" xml:space="preserve">
<style type="text/css">
	.st0{fill:none;stroke:#636363;stroke-width:0.5;stroke-miterlimit:10;}
	.st1{fill:none;stroke:#4E403E;stroke-miterlimit:10;}
</style>
<path class="st0" d="M0,6.4c-2.5,0-10.9,34.5-10.3,40.7c5.8,62.3,1189.7,38.5,1188.9-3.1c-0.2-9.2-58.5-37.6-58.6-37.6c0,0,0,0,0,0
	c0,0-0.6,0-1.3,0c-0.8-0.1-2-0.2-3.2-0.7c-2.2-0.8-3.7-2-5.4-3.1s-3.7-1.9-7-1.9c-4.3,0-6.4,1.4-8.5,2.9s-4.2,2.8-8.5,2.8
	c-4.3,0-6.4-1.4-8.5-2.8c-2.1-1.4-4.2-2.9-8.5-2.9c-4.3,0-6.4,1.4-8.5,2.9c-2.1,1.4-4.2,2.8-8.5,2.8c-4.3,0-6.4-1.4-8.5-2.8
	c-2.1-1.4-4.2-2.9-8.5-2.9c-4.3,0-6.4,1.4-8.5,2.9s-4.2,2.8-8.5,2.8c-4.3,0-6.4-1.4-8.5-2.8s-4.2-2.9-8.5-2.9
	c-4.3,0-6.4,1.4-8.5,2.9s-4.2,2.8-8.5,2.8c-4.3,0-6.4-1.4-8.5-2.8c-2.1-1.4-4.2-2.9-8.5-2.9c-4.3,0-6.4,1.4-8.5,2.9
	s-4.2,2.8-8.5,2.8c-4.3,0-6.4-1.4-8.5-2.8c-2.1-1.4-4.2-2.9-8.5-2.9c-4.3,0-6.4,1.4-8.5,2.9c-2.1,1.4-4.2,2.8-8.5,2.8
	c-4.3,0-6.4-1.4-8.5-2.8s-4.2-2.9-8.5-2.9c-4.3,0-6.4,1.4-8.5,2.9c-2.1,1.4-4.2,2.8-8.5,2.8c-4.3,0-6.4-1.4-8.5-2.8
	s-4.2-2.9-8.5-2.9s-6.3,1.4-8.4,2.9c-2.1,1.4-4.2,2.8-8.4,2.8c-4.2,0-6.3-1.4-8.4-2.8s-4.2-2.9-8.4-2.9c-4.2,0-6.3,1.4-8.4,2.9
	c-2.1,1.4-4.2,2.8-8.4,2.8c-4.2,0-6.3-1.4-8.4-2.8s-4.2-2.9-8.4-2.9c-4.3,0-6.4,1.4-8.5,2.9s-4.2,2.8-8.5,2.8
	c-4.3,0-6.4-1.4-8.5-2.8c-2.1-1.4-4.2-2.9-8.5-2.9c-4.3,0-6.4,1.4-8.5,2.9c-2.1,1.4-4.2,2.8-8.5,2.8c-4.3,0-6.4-1.4-8.5-2.8
	c-2.1-1.4-4.2-2.9-8.5-2.9c-4.3,0-6.4,1.4-8.5,2.9c-2.1,1.4-4.2,2.8-8.5,2.8c-4.3,0-6.4-1.4-8.5-2.8c-2.1-1.4-4.2-2.9-8.5-2.9
	c-4.3,0-6.4,1.4-8.5,2.9c-2.1,1.4-4.2,2.8-8.5,2.8c-4.3,0-6.4-1.4-8.5-2.8c-2.1-1.4-4.2-2.9-8.5-2.9c-4.3,0-6.4,1.4-8.5,2.9
	c-2.1,1.4-4.2,2.8-8.5,2.8c-4.3,0-6.4-1.4-8.5-2.8c-2.1-1.4-4.2-2.9-8.5-2.9c-4.3,0-6.4,1.4-8.5,2.9s-4.2,2.8-8.5,2.8
	c-4.3,0-6.4-1.4-8.5-2.8c-2.1-1.4-4.2-2.9-8.5-2.9c-4.3,0-6.4,1.4-8.5,2.9c-2.1,1.4-4.2,2.8-8.5,2.8c-0.1,0-0.1,0-0.1,0c0,0,0,0,0,0
	c-4.2,0-6.3-1.4-8.4-2.8c-2.1-1.4-4.2-2.9-8.4-2.9s-6.3,1.4-8.4,2.9s-4.2,2.8-8.4,2.8c-0.1,0-0.1,0-0.1,0c0,0,0,0,0,0
	c-4.3,0-6.4-1.4-8.5-2.8c-2.1-1.4-4.2-2.9-8.5-2.9c-4.3,0-6.4,1.4-8.5,2.9c-2.1,1.4-4.2,2.8-8.5,2.8c-4.3,0-6.4-1.4-8.5-2.8
	c-2.1-1.4-4.2-2.9-8.5-2.9c-4.3,0-6.4,1.4-8.5,2.9s-4.2,2.8-8.5,2.8c-4.3,0-6.4-1.4-8.5-2.8s-4.2-2.9-8.5-2.9
	c-4.3,0-6.4,1.4-8.5,2.9c-2.1,1.4-4.2,2.8-8.5,2.8c-4.3,0-6.4-1.4-8.5-2.8s-4.2-2.9-8.5-2.9c-4.3,0-6.4,1.4-8.5,2.9
	s-4.2,2.8-8.5,2.8c-4.3,0-6.4-1.4-8.5-2.8c-2.1-1.4-4.2-2.9-8.5-2.9c-4.3,0-6.4,1.4-8.5,2.9s-4.2,2.8-8.5,2.8
	c-4.3,0-6.4-1.4-8.5-2.8s-4.2-2.9-8.5-2.9c-4.3,0-6.4,1.4-8.5,2.9s-4.2,2.8-8.5,2.8c-4.3,0-6.4-1.4-8.5-2.8
	c-2.1-1.4-4.2-2.9-8.5-2.9s-6.3,1.4-8.4,2.9s-4.2,2.8-8.4,2.8s-6.3-1.4-8.4-2.8s-4.2-2.9-8.4-2.9s-6.3,1.4-8.4,2.9s-4.2,2.8-8.4,2.8
	s-6.3-1.4-8.4-2.8s-4.2-2.9-8.4-2.9c-4.3,0-6.4,1.4-8.5,2.9s-4.2,2.8-8.5,2.8c-4.3,0-6.4-1.4-8.5-2.8s-4.2-2.9-8.5-2.9
	c-4.3,0-6.4,1.4-8.5,2.9s-4.2,2.8-8.5,2.8c-4.3,0-6.4-1.4-8.5-2.8s-4.2-2.9-8.5-2.9c-4.3,0-6.4,1.4-8.5,2.9s-4.2,2.8-8.5,2.8
	c-4.3,0-6.4-1.4-8.5-2.8s-4.2-2.9-8.5-2.9c-4.3,0-6.4,1.4-8.5,2.9s-4.2,2.8-8.5,2.8c-4.3,0-6.4-1.4-8.5-2.8s-4.2-2.9-8.5-2.9
	c-4.3,0-6.4,1.4-8.5,2.9c-2.1,1.4-4.2,2.8-8.5,2.8c-4.3,0-6.4-1.4-8.5-2.8c-2.1-1.4-4.2-2.9-8.5-2.9c-4.3,0-6.4,1.4-8.5,2.9
	c-2.1,1.4-4.2,2.8-8.5,2.8c-4.3,0-6.4-1.4-8.5-2.8c-2.1-1.4-4.2-2.9-8.5-2.9c-4.3,0-6.4,1.4-8.5,2.9c-2.1,1.4-4.2,2.8-8.5,2.8
	c-4.3,0-6.4-1.4-8.5-2.8c-2.1-1.4-4.2-2.9-8.5-2.9c-0.9,0-1.7,0.1-2.5,0.2c-0.7,0.1-1.4,0.3-2,0.5c-1.9,0.7-3,1.4-4.1,2.2
	C7.3,4.3,6.3,5.1,4.5,5.7C4.1,5.8,3.2,6.1,2,6.2C0.9,6.4,0.1,6.4,0,6.4z"/>
<path class="st1" d="M239.8-52.5"/>
<path class="st1" d="M927,52.2"/>
</svg>
