<?xml version="1.0" encoding="utf-8"?>
<!-- Generator: Adobe Illustrator 16.0.0, SVG Export Plug-In . SVG Version: 6.00 Build 0)  -->
<!DOCTYPE svg PUBLIC "-//W3C//DTD SVG 1.1//EN" "http://www.w3.org/Graphics/SVG/1.1/DTD/svg11.dtd">
<svg version="1.1" id="Режим_изоляции"
	 xmlns="http://www.w3.org/2000/svg" xmlns:xlink="http://www.w3.org/1999/xlink" x="0px" y="0px" width="105.25px" height="15.5px"
	 viewBox="0 0 105.25 15.5" enable-background="new 0 0 105.25 15.5" xml:space="preserve">
<g>
	<path fill="#4CAF50" d="M82.397,2.718c-7.889,0-7.889,5.8-15.779,5.8s-7.89-5.8-15.779-5.8s-7.89,5.8-15.779,5.8
		s-7.889-5.8-15.778-5.8c-7.889,0-7.889,5.8-15.777,5.8c-0.06,0-0.116-0.003-0.175-0.004v0.478c0.059,0,0.115,0.004,0.175,0.004
		c7.888,0,7.888-5.8,15.777-5.8c7.889,0,7.889,5.8,15.778,5.8s7.889-5.8,15.779-5.8s7.89,5.8,15.779,5.8s7.89-5.8,15.779-5.8
		c7.867,0,7.893,5.765,15.714,5.799V8.516C90.29,8.482,90.265,2.718,82.397,2.718z"/>
	<path fill="#4CAF50" d="M82.417,3.175c-7.888,0-7.888,5.8-15.778,5.8s-7.89-5.8-15.78-5.8c-7.889,0-7.889,5.8-15.778,5.8
		c-7.89,0-7.89-5.8-15.779-5.8c-7.888,0-7.888,5.8-15.776,5.8c-0.06,0-0.116-0.003-0.175-0.004v0.478
		C3.409,9.45,3.465,9.453,3.525,9.453c7.888,0,7.888-5.8,15.776-5.8c7.889,0,7.889,5.8,15.779,5.8c7.889,0,7.889-5.8,15.778-5.8
		c7.89,0,7.89,5.8,15.78,5.8s7.89-5.8,15.778-5.8c7.868,0,7.893,5.765,15.715,5.799V8.974C90.31,8.94,90.284,3.175,82.417,3.175z"/>
	<polygon fill="#4CAF50" points="97.931,13.291 97.931,4.493 102.33,8.893 	"/>
</g>
</svg>
