<svg width="25" height="25" viewBox="0 0 25 25" fill="none" xmlns="http://www.w3.org/2000/svg">
<path d="M13 3C8.0294 3 4 7.0294 4 12C4 16.9706 8.0294 21 13 21C17.9706 21 22 16.9706 22 12C22 7.0294 17.9706 3 13 3Z" fill="#40B3E0"/>
<path d="M17.3792 8.17643L15.7717 16.2811C15.7717 16.2811 15.5469 16.8432 14.9287 16.5734L11.2191 13.7294L9.87027 13.0775L7.5996 12.3131C7.5996 12.3131 7.25113 12.1894 7.21738 11.9197C7.1837 11.6499 7.61085 11.5038 7.61085 11.5038L16.6373 7.96282C16.6373 7.96282 17.3792 7.63685 17.3792 8.17643Z" fill="white"/>
<path d="M10.9341 16.1906C10.9341 16.1906 10.8258 16.1804 10.6909 15.7532C10.556 15.3261 9.87033 13.0779 9.87033 13.0779L15.3222 9.6157C15.3222 9.6157 15.6369 9.42459 15.6257 9.6157C15.6257 9.6157 15.6819 9.64938 15.5133 9.80674C15.3447 9.96417 11.2305 13.6624 11.2305 13.6624" fill="#D2E5F1"/>
<path d="M12.6415 14.8202L11.1743 16.158C11.1743 16.158 11.0596 16.245 10.9341 16.1905L11.215 13.7056" fill="#B5CFE4"/>
</svg>
