<svg width="26" height="26" viewBox="0 0 26 26" fill="none" xmlns="http://www.w3.org/2000/svg">
<path d="M20.4414 2.99854H4.98098C0.924536 7.78615 1.00107 16.2123 6.97093 20.6553L7.46842 24.4086L11.1039 20.9234L22.3165 18.5104C22.3165 9.17696 23.6177 9.66289 20.4414 2.99854Z" fill="#7D3DAF"/>
<path d="M23.5791 6.74399L23.5722 6.71641C23.015 4.46202 20.5031 2.04293 18.1963 1.53966L18.1702 1.5343C14.4391 0.821901 10.6559 0.821901 6.92547 1.5343L6.89868 1.53966C4.59263 2.04293 2.0807 4.46202 1.52275 6.71641L1.51662 6.74399C0.827793 9.89232 0.827793 13.0851 1.51662 16.2334L1.52275 16.261C2.05689 18.4192 4.38177 20.7271 6.60248 21.3618V23.8784C6.60248 24.7892 7.7115 25.2365 8.34216 24.5793L10.8897 21.9289C11.4422 21.9599 11.995 21.9771 12.5479 21.9771C14.4261 21.9771 16.305 21.7994 18.1702 21.4432L18.1963 21.4378C20.5031 20.9345 23.015 18.5155 23.5722 16.2611L23.5791 16.2335C24.2679 13.0851 24.2679 9.89232 23.5791 6.74399ZM21.5631 15.7769C21.1911 17.2476 19.2838 19.0761 17.7684 19.4139C15.7845 19.7915 13.7849 19.9529 11.7873 19.8975C11.7476 19.8964 11.7094 19.9118 11.6817 19.9403C11.3982 20.2316 9.82162 21.8514 9.82162 21.8514L7.84314 23.8836C7.69849 24.0345 7.44439 23.9319 7.44439 23.7235V19.5547C7.44439 19.4859 7.39525 19.4273 7.32767 19.4141C7.32729 19.414 7.3269 19.4139 7.32652 19.4138C5.81109 19.076 3.90457 17.2476 3.53183 15.7768C2.91189 12.931 2.91189 10.0462 3.53183 7.20046C3.90457 5.7297 5.81109 3.90122 7.32652 3.5634C10.7913 2.90386 14.3044 2.90386 17.7684 3.5634C19.2846 3.90122 21.1911 5.7297 21.5631 7.20046C22.1837 10.0463 22.1837 12.9311 21.5631 15.7769Z" fill="white"/>
<path d="M15.8443 17.701C15.6114 17.6302 15.3893 17.5827 15.1831 17.497C13.0465 16.6098 11.0802 15.4652 9.52257 13.7107C8.63681 12.7129 7.94354 11.5865 7.3575 10.3944C7.07959 9.8291 6.84539 9.24164 6.60667 8.65801C6.389 8.12578 6.70961 7.57594 7.04722 7.17493C7.364 6.79858 7.77164 6.51056 8.2131 6.2983C8.55767 6.13261 8.89757 6.22813 9.14922 6.52044C9.69324 7.15241 10.193 7.8167 10.5976 8.54924C10.8464 8.99981 10.7782 9.55058 10.3272 9.85721C10.2176 9.93175 10.1177 10.0192 10.0156 10.1034C9.92607 10.1772 9.8418 10.2517 9.78042 10.3516C9.66822 10.5344 9.66286 10.7499 9.73511 10.9486C10.2912 12.4782 11.2286 13.6676 12.7668 14.3082C13.0129 14.4107 13.2602 14.5301 13.5437 14.497C14.0186 14.4414 14.1724 13.9201 14.5052 13.6477C14.8305 13.3815 15.2461 13.378 15.5965 13.5999C15.947 13.8219 16.2867 14.0602 16.6244 14.301C16.9559 14.5374 17.2859 14.7687 17.5917 15.0382C17.8857 15.2973 17.9869 15.6373 17.8214 15.989C17.5183 16.633 17.0773 17.1689 16.4411 17.5109C16.2615 17.6073 16.0469 17.6386 15.8443 17.701C16.0469 17.6386 15.6114 17.6302 15.8443 17.701Z" fill="white"/>
<path d="M12.5537 5.56269C15.3484 5.64105 17.6438 7.49734 18.1357 10.2627C18.2195 10.7338 18.2494 11.2156 18.2867 11.6938C18.3024 11.895 18.1886 12.0861 17.9716 12.0887C17.7476 12.0914 17.6468 11.9038 17.6323 11.7027C17.6035 11.3047 17.5835 10.9049 17.5287 10.5102C17.2394 8.42652 15.5793 6.70268 13.5071 6.33277C13.1953 6.27708 12.8761 6.26245 12.5603 6.22928C12.3606 6.20829 12.0991 6.19618 12.0548 5.94776C12.0177 5.73948 12.1934 5.57364 12.3915 5.56299C12.4454 5.56001 12.4996 5.56246 12.5537 5.56269C15.3484 5.64105 12.4996 5.56246 12.5537 5.56269Z" fill="white"/>
<path d="M16.8008 11.0723C16.7963 11.1073 16.7938 11.1894 16.7734 11.2667C16.6992 11.5476 16.2738 11.5827 16.1759 11.2993C16.1468 11.2152 16.1425 11.1195 16.1423 11.029C16.1413 10.4365 16.0127 9.8447 15.7142 9.32925C15.4073 8.79947 14.9386 8.35411 14.3887 8.08463C14.0562 7.92169 13.6967 7.82043 13.3323 7.76006C13.173 7.73371 13.0121 7.7177 12.852 7.69541C12.6581 7.66845 12.5545 7.54473 12.5637 7.35346C12.5723 7.17421 12.7032 7.04529 12.8983 7.05632C13.5397 7.09278 14.1592 7.23151 14.7294 7.5337C15.8889 8.14828 16.5513 9.11837 16.7446 10.4137C16.7533 10.4724 16.7674 10.5305 16.7718 10.5894C16.7828 10.7349 16.7897 10.8805 16.8008 11.0723C16.7963 11.1073 16.7897 10.8805 16.8008 11.0723Z" fill="white"/>
<path d="M15.0625 11.005C14.8287 11.0092 14.7036 10.8796 14.6795 10.6651C14.6627 10.5155 14.6495 10.3639 14.6138 10.2183C14.5435 9.9317 14.3913 9.66605 14.1504 9.4904C14.0366 9.40744 13.9077 9.347 13.7727 9.30801C13.6012 9.25845 13.4231 9.27208 13.252 9.23011C13.0661 9.18453 12.9634 9.03393 12.9926 8.85943C13.0192 8.70064 13.1735 8.57669 13.3469 8.58926C14.4304 8.66754 15.2048 9.22819 15.3153 10.5048C15.3231 10.5949 15.3323 10.6901 15.3123 10.7763C15.2781 10.9238 15.169 10.9978 15.0625 11.005C15.169 10.9978 14.8287 11.0092 15.0625 11.005Z" fill="white"/>
</svg>
