<svg id="Режим_изоляции" data-name="Режим изоляции" xmlns="http://www.w3.org/2000/svg" viewBox="0 0 1120 21.5"><defs><style>.cls-1{fill:#4caf50;}</style></defs><path class="cls-1" d="M1121.1,0c-8.4,0-8.4,5.7-16.9,5.7s-8.4-5.7-17-5.7c-8.4,0-8.4,5.7-17,5.7-8.4,0-8.4-5.7-17-5.7-8.4,0-8.4,5.7-17,5.7-8.4,0-8.4-5.7-17-5.7-8.4,0-8.4,5.7-17,5.7-8.4,0-8.4-5.7-17-5.7-8.4,0-8.4,5.7-17,5.7-8.4,0-8.4-5.7-17-5.7-8.4,0-8.4,5.7-17,5.7-8.4,0-8.4-5.7-17-5.7-8.4,0-8.4,5.7-17,5.7-8.4,0-8.4-5.7-17-5.7-8.4,0-8.4,5.7-17,5.7-8.4,0-8.4-5.7-16.9-5.7h0c-8.4,0-8.4,5.7-16.9,5.7S824,0,815.5,0h0c-8.4,0-8.4,5.7-16.9,5.7S790.2,0,781.6,0c-8.4,0-8.4,5.7-17,5.7-8.4,0-8.4-5.7-17-5.7-8.4,0-8.4,5.7-17,5.7-8.4,0-8.4-5.7-17-5.7-8.4,0-8.4,5.7-17,5.7-8.4,0-8.4-5.7-17-5.7-8.4,0-8.4,5.7-17,5.7-8.4,0-8.4-5.7-17-5.7-8.4,0-8.4,5.7-17,5.7-8.4,0-8.4-5.7-17-5.7-8.4,0-8.4,5.7-17,5.7-8.4,0-8.4-5.7-17-5.7h-.1c-8.4,0-8.4,5.7-16.9,5.7S552.2,0,543.7,0h-.1c-8.4,0-8.4,5.7-17,5.7-8.4,0-8.4-5.7-17-5.7-8.4,0-8.4,5.7-17,5.7-8.4,0-8.4-5.7-17-5.7-8.4,0-8.4,5.7-17,5.7-8.4,0-8.4-5.7-17-5.7-8.4,0-8.4,5.7-17,5.7-8.4,0-8.4-5.7-17-5.7-8.4,0-8.4,5.7-17,5.7-8.4,0-8.4-5.7-17-5.7-8.4,0-8.4,5.7-17,5.7-8.4,0-8.4-5.7-17-5.7-8.4,0-8.4,5.7-17,5.7-8.4,0-8.4-5.7-16.9-5.7h0c-8.4,0-8.4,5.7-16.9,5.7S280.4,0,271.9,0h0c-8.4,0-8.4,5.7-16.9,5.7S246.6,0,238,0c-8.4,0-8.4,5.7-17,5.7-8.4,0-8.4-5.7-17-5.7-8.4,0-8.4,5.7-17,5.7-8.4,0-8.4-5.7-17-5.7-8.4,0-8.4,5.7-17,5.7-8.4,0-8.4-5.7-17-5.7s-8.4,5.7-17,5.7c-8.4,0-8.4-5.7-17-5.7-8.4,0-8.4,5.7-17,5.7C76.6,5.7,76.6,0,68,0c-8.4,0-8.4,5.7-17,5.7C42.6,5.7,42.6,0,34,0c-8.4,0-8.4,5.7-17,5.7C8.6,5.7,8.6,0,0,0V21.5H1121.1Z"/></svg>