<svg width="25" height="25" viewBox="0 0 25 25" fill="none" xmlns="http://www.w3.org/2000/svg">
<path fill-rule="evenodd" clip-rule="evenodd" d="M12.9974 3C8.03585 3 4 7.03698 4 11.9999C4 13.9682 4.63474 15.7935 5.71375 17.2751L4.59235 20.6189L8.05167 19.5133C9.47447 20.4551 11.1724 21 13.0026 21C17.9642 21 22 16.9629 22 12.0001C22 7.03714 17.9642 3.00015 13.0026 3.00015L12.9974 3ZM10.4848 7.57156C10.3103 7.1536 10.178 7.13778 9.91367 7.12703C9.82365 7.1218 9.72333 7.11658 9.61211 7.11658C9.26817 7.11658 8.90855 7.21707 8.69164 7.43927C8.42726 7.7091 7.77131 8.33864 7.77131 9.6297C7.77131 10.9208 8.71284 12.1694 8.83973 12.3441C8.97199 12.5185 10.6753 15.2064 13.32 16.3018C15.3881 17.1589 16.0018 17.0795 16.4725 16.979C17.1601 16.8309 18.0224 16.3227 18.2393 15.7091C18.4562 15.0953 18.4562 14.5714 18.3926 14.4603C18.3291 14.3492 18.1545 14.2859 17.8901 14.1535C17.6257 14.0212 16.3403 13.3862 16.0969 13.3016C15.8588 13.2117 15.6315 13.2435 15.4517 13.4975C15.1978 13.852 14.9493 14.2119 14.7482 14.4287C14.5895 14.598 14.3302 14.6192 14.1134 14.5292C13.8225 14.4076 13.008 14.1217 12.0029 13.2275C11.2253 12.5345 10.6964 11.6722 10.543 11.4129C10.3896 11.1485 10.5272 10.9948 10.6487 10.8521C10.781 10.688 10.9079 10.5716 11.0402 10.4181C11.1724 10.2648 11.2465 10.1853 11.3311 10.0054C11.4211 9.83084 11.3575 9.6509 11.2941 9.5186C11.2306 9.3863 10.7017 8.09524 10.4848 7.57156Z" fill="#67C15E"/>
</svg>
